<?xml version="1.0" standalone="yes"?>

<svg version="1.1" viewBox="0.0 0.0 183.0 252.0" fill="none" stroke="none" stroke-linecap="square" stroke-miterlimit="10" xmlns="http://www.w3.org/2000/svg" xmlns:xlink="http://www.w3.org/1999/xlink"><clipPath id="p.0"><path d="m0 0l183.0 0l0 252.0l-183.0 0l0 -252.0z" clip-rule="nonzero"></path></clipPath><g clip-path="url(#p.0)"><path fill="#000000" fill-opacity="0.0" d="m0 0l183.0 0l0 252.0l-183.0 0z" fill-rule="nonzero"></path><path fill="#cccccc" d="m3736.2627 785.55396l0 0c0 -48.312134 39.16455 -87.47681 87.47681 -87.47681l533.55005 0c23.200684 0 45.450684 9.216248 61.85547 25.621338c16.405273 16.40509 25.621582 38.65515 25.621582 61.85547l0 349.89673c0 48.312134 -39.16455 87.47681 -87.47705 87.47681l-533.55005 0c-48.312256 0 -87.47681 -39.164673 -87.47681 -87.47681z" fill-rule="nonzero"></path><path fill="#000000" fill-opacity="0.0" d="m4000.6843 719.57135l193.48022 0" fill-rule="nonzero"></path><path stroke="#efefef" stroke-width="4.0" stroke-linejoin="round" stroke-linecap="butt" d="m4000.6843 719.57135l193.48022 0" fill-rule="nonzero"></path><path fill="#ffffff" d="m4334.855 722.86035c0 -2.2178345 5.2177734 -4.015747 11.653809 -4.015747l0 0c6.436035 0 11.65332 1.7979126 11.65332 4.015747l0 0c0 2.2178345 -5.217285 4.015747 -11.65332 4.015747l0 0c-6.436035 0 -11.653809 -1.7979126 -11.653809 -4.015747z" fill-rule="nonzero"></path><path stroke="#ffffff" stroke-width="2.0" stroke-linejoin="round" stroke-linecap="butt" d="m4334.855 722.86035c0 -2.2178345 5.2177734 -4.015747 11.653809 -4.015747l0 0c6.436035 0 11.65332 1.7979126 11.65332 4.015747l0 0c0 2.2178345 -5.217285 4.015747 -11.65332 4.015747l0 0c-6.436035 0 -11.653809 -1.7979126 -11.653809 -4.015747z" fill-rule="nonzero"></path><path fill="#434343" d="m3767.9265 744.4816l647.9055 0l0 411.84247l-647.9055 0z" fill-rule="nonzero"></path><path fill="#ffffff" d="m4033.019 1188.463l0 0c0 -10.828247 22.985107 -19.606323 51.338623 -19.606323l0 0c28.35376 0 51.338623 8.778076 51.338623 19.606323l0 0c0 10.828247 -22.984863 19.606323 -51.338623 19.606323l0 0c-28.353516 0 -51.338623 -8.778076 -51.338623 -19.606323z" fill-rule="nonzero"></path><path fill="#4a86e8" d="m3776.6975 898.4668l630.4885 0l0 67.55908l-630.4885 0z" fill-rule="nonzero"></path><path fill="#000000" fill-opacity="0.0" d="m3821.3296 913.75604l220.5669 0" fill-rule="nonzero"></path><path stroke="#f3f3f3" stroke-width="4.0" stroke-linejoin="round" stroke-linecap="butt" d="m3821.3296 913.75604l220.5669 0" fill-rule="nonzero"></path><path fill="#000000" fill-opacity="0.0" d="m3821.3164 932.25757l504.66162 0" fill-rule="nonzero"></path><path stroke="#f3f3f3" stroke-width="4.0" stroke-linejoin="round" stroke-linecap="butt" d="m3821.3164 932.25757l504.66162 0" fill-rule="nonzero"></path><path fill="#000000" fill-opacity="0.0" d="m3821.3164 949.9973l504.66162 0" fill-rule="nonzero"></path><path stroke="#f3f3f3" stroke-width="4.0" stroke-linejoin="round" stroke-linecap="butt" d="m3821.3164 949.9973l504.66162 0" fill-rule="nonzero"></path><path fill="#efefef" d="m3776.6975 823.34265l630.4885 0l0 67.55902l-630.4885 0z" fill-rule="nonzero"></path><path fill="#000000" fill-opacity="0.0" d="m3820.9229 839.01276l220.56714 0" fill-rule="nonzero"></path><path stroke="#b7b7b7" stroke-width="4.0" stroke-linejoin="round" stroke-linecap="butt" d="m3820.9229 839.01276l220.56714 0" fill-rule="nonzero"></path><path fill="#000000" fill-opacity="0.0" d="m3820.91 857.5143l263.71655 0" fill-rule="nonzero"></path><path stroke="#b7b7b7" stroke-width="4.0" stroke-linejoin="round" stroke-linecap="butt" d="m3820.91 857.5143l263.71655 0" fill-rule="nonzero"></path><path fill="#000000" fill-opacity="0.0" d="m3820.91 875.254l504.66138 0" fill-rule="nonzero"></path><path stroke="#b7b7b7" stroke-width="4.0" stroke-linejoin="round" stroke-linecap="butt" d="m3820.91 875.254l504.66138 0" fill-rule="nonzero"></path><path fill="#000000" fill-opacity="0.0" d="m4104.9907 839.01276l220.5669 0" fill-rule="nonzero"></path><path stroke="#b7b7b7" stroke-width="4.0" stroke-linejoin="round" stroke-linecap="butt" d="m4104.9907 839.01276l220.5669 0" fill-rule="nonzero"></path><path fill="#4a86e8" d="m3514.7358 918.6504l208.48828 0l0 -13.629944l27.259766 27.259827l-27.259766 27.259827l0 -13.629883l-208.48828 0z" fill-rule="nonzero"></path><path fill="#efefef" d="m3775.2942 748.21844l630.48804 0l0 67.55908l-630.48804 0z" fill-rule="nonzero"></path><path fill="#000000" fill-opacity="0.0" d="m3819.5195 763.88855l220.5669 0" fill-rule="nonzero"></path><path stroke="#b7b7b7" stroke-width="4.0" stroke-linejoin="round" stroke-linecap="butt" d="m3819.5195 763.88855l220.5669 0" fill-rule="nonzero"></path><path fill="#000000" fill-opacity="0.0" d="m3819.5066 782.3901l263.71655 0" fill-rule="nonzero"></path><path stroke="#b7b7b7" stroke-width="4.0" stroke-linejoin="round" stroke-linecap="butt" d="m3819.5066 782.3901l263.71655 0" fill-rule="nonzero"></path><path fill="#000000" fill-opacity="0.0" d="m3819.5066 800.1299l504.66138 0" fill-rule="nonzero"></path><path stroke="#b7b7b7" stroke-width="4.0" stroke-linejoin="round" stroke-linecap="butt" d="m3819.5066 800.1299l504.66138 0" fill-rule="nonzero"></path><path fill="#000000" fill-opacity="0.0" d="m4103.5874 763.88855l220.5669 0" fill-rule="nonzero"></path><path stroke="#b7b7b7" stroke-width="4.0" stroke-linejoin="round" stroke-linecap="butt" d="m4103.5874 763.88855l220.5669 0" fill-rule="nonzero"></path><path fill="#efefef" d="m3776.6975 973.59094l630.4885 0l0 67.55908l-630.4885 0z" fill-rule="nonzero"></path><path fill="#000000" fill-opacity="0.0" d="m3820.91 1007.76263l263.71655 0" fill-rule="nonzero"></path><path stroke="#b7b7b7" stroke-width="4.0" stroke-linejoin="round" stroke-linecap="butt" d="m3820.91 1007.76263l263.71655 0" fill-rule="nonzero"></path><path fill="#000000" fill-opacity="0.0" d="m4114.2764 986.6221l220.5669 0" fill-rule="nonzero"></path><path stroke="#b7b7b7" stroke-width="4.0" stroke-linejoin="round" stroke-linecap="butt" d="m4114.2764 986.6221l220.5669 0" fill-rule="nonzero"></path><path fill="#000000" fill-opacity="0.0" d="m3820.91 1025.5024l504.66138 0" fill-rule="nonzero"></path><path stroke="#b7b7b7" stroke-width="4.0" stroke-linejoin="round" stroke-linecap="butt" d="m3820.91 1025.5024l504.66138 0" fill-rule="nonzero"></path><path fill="#efefef" d="m3776.6975 1048.7139l630.4885 0l0 67.55908l-630.4885 0z" fill-rule="nonzero"></path><path fill="#000000" fill-opacity="0.0" d="m3820.9229 1064.384l220.56714 0" fill-rule="nonzero"></path><path stroke="#b7b7b7" stroke-width="4.0" stroke-linejoin="round" stroke-linecap="butt" d="m3820.9229 1064.384l220.56714 0" fill-rule="nonzero"></path><path fill="#000000" fill-opacity="0.0" d="m3965.5864 1082.506l263.7168 0" fill-rule="nonzero"></path><path stroke="#b7b7b7" stroke-width="4.0" stroke-linejoin="round" stroke-linecap="butt" d="m3965.5864 1082.506l263.7168 0" fill-rule="nonzero"></path><path fill="#000000" fill-opacity="0.0" d="m4104.9907 1064.384l220.5669 0" fill-rule="nonzero"></path><path stroke="#b7b7b7" stroke-width="4.0" stroke-linejoin="round" stroke-linecap="butt" d="m4104.9907 1064.384l220.5669 0" fill-rule="nonzero"></path><path fill="#000000" fill-opacity="0.0" d="m3820.91 1100.6252l266.29907 0" fill-rule="nonzero"></path><path stroke="#b7b7b7" stroke-width="4.0" stroke-linejoin="round" stroke-linecap="butt" d="m3820.91 1100.6252l266.29907 0" fill-rule="nonzero"></path><path fill="#efefef" d="m3776.6975 1123.8392l630.4885 0l0 32.472412l-630.4885 0z" fill-rule="nonzero"></path><path fill="#cccccc" d="m3823.9395 820.0778l0 0c0 -48.312134 39.16455 -87.47687 87.47681 -87.47687l533.55005 0c23.200684 0 45.450684 9.216309 61.85547 25.621399c16.405273 16.40509 25.621582 38.65515 25.621582 61.85547l0 349.8968c0 48.31201 -39.16455 87.47681 -87.47705 87.47681l-533.55005 0c-48.312256 0 -87.47681 -39.164795 -87.47681 -87.47681z" fill-rule="nonzero"></path><path fill="#000000" fill-opacity="0.0" d="m4088.361 754.0952l193.48022 0" fill-rule="nonzero"></path><path stroke="#efefef" stroke-width="4.0" stroke-linejoin="round" stroke-linecap="butt" d="m4088.361 754.0952l193.48022 0" fill-rule="nonzero"></path><path fill="#ffffff" d="m4422.5317 757.3842c0 -2.2178345 5.2177734 -4.015747 11.653809 -4.015747l0 0c6.436035 0 11.65332 1.7979126 11.65332 4.015747l0 0c0 2.2178345 -5.217285 4.015747 -11.65332 4.015747l0 0c-6.436035 0 -11.653809 -1.7979126 -11.653809 -4.015747z" fill-rule="nonzero"></path><path stroke="#ffffff" stroke-width="2.0" stroke-linejoin="round" stroke-linecap="butt" d="m4422.5317 757.3842c0 -2.2178345 5.2177734 -4.015747 11.653809 -4.015747l0 0c6.436035 0 11.65332 1.7979126 11.65332 4.015747l0 0c0 2.2178345 -5.217285 4.015747 -11.65332 4.015747l0 0c-6.436035 0 -11.653809 -1.7979126 -11.653809 -4.015747z" fill-rule="nonzero"></path><path fill="#434343" d="m3855.6033 779.0055l647.9055 0l0 411.84253l-647.9055 0z" fill-rule="nonzero"></path><path fill="#ffffff" d="m4120.696 1222.9868l0 0c0 -10.828247 22.985352 -19.606323 51.338867 -19.606323l0 0c28.353516 0 51.33838 8.778076 51.33838 19.606323l0 0c0 10.828247 -22.984863 19.606323 -51.33838 19.606323l0 0c-28.353516 0 -51.338867 -8.778076 -51.338867 -19.606323z" fill-rule="nonzero"></path><path fill="#4a86e8" d="m3864.3743 932.99066l630.4885 0l0 67.55902l-630.4885 0z" fill-rule="nonzero"></path><path fill="#000000" fill-opacity="0.0" d="m3909.0063 948.2799l220.5669 0" fill-rule="nonzero"></path><path stroke="#f3f3f3" stroke-width="4.0" stroke-linejoin="round" stroke-linecap="butt" d="m3909.0063 948.2799l220.5669 0" fill-rule="nonzero"></path><path fill="#000000" fill-opacity="0.0" d="m3908.9932 966.78143l504.66162 0" fill-rule="nonzero"></path><path stroke="#f3f3f3" stroke-width="4.0" stroke-linejoin="round" stroke-linecap="butt" d="m3908.9932 966.78143l504.66162 0" fill-rule="nonzero"></path><path fill="#000000" fill-opacity="0.0" d="m3908.9932 984.5212l504.66162 0" fill-rule="nonzero"></path><path stroke="#f3f3f3" stroke-width="4.0" stroke-linejoin="round" stroke-linecap="butt" d="m3908.9932 984.5212l504.66162 0" fill-rule="nonzero"></path><path fill="#efefef" d="m3864.3743 857.86646l630.4885 0l0 67.55908l-630.4885 0z" fill-rule="nonzero"></path><path fill="#000000" fill-opacity="0.0" d="m3908.5996 873.5366l220.5669 0" fill-rule="nonzero"></path><path stroke="#b7b7b7" stroke-width="4.0" stroke-linejoin="round" stroke-linecap="butt" d="m3908.5996 873.5366l220.5669 0" fill-rule="nonzero"></path><path fill="#000000" fill-opacity="0.0" d="m3908.5867 892.0381l263.71655 0" fill-rule="nonzero"></path><path stroke="#b7b7b7" stroke-width="4.0" stroke-linejoin="round" stroke-linecap="butt" d="m3908.5867 892.0381l263.71655 0" fill-rule="nonzero"></path><path fill="#000000" fill-opacity="0.0" d="m3908.5867 909.7779l504.66138 0" fill-rule="nonzero"></path><path stroke="#b7b7b7" stroke-width="4.0" stroke-linejoin="round" stroke-linecap="butt" d="m3908.5867 909.7779l504.66138 0" fill-rule="nonzero"></path><path fill="#000000" fill-opacity="0.0" d="m4192.6675 873.5366l220.5669 0" fill-rule="nonzero"></path><path stroke="#b7b7b7" stroke-width="4.0" stroke-linejoin="round" stroke-linecap="butt" d="m4192.6675 873.5366l220.5669 0" fill-rule="nonzero"></path><path fill="#4a86e8" d="m3602.4126 953.1742l208.48828 0l0 -13.629883l27.259766 27.259827l-27.259766 27.259827l0 -13.629944l-208.48828 0z" fill-rule="nonzero"></path><path fill="#efefef" d="m3862.971 782.7423l630.48804 0l0 67.55902l-630.48804 0z" fill-rule="nonzero"></path><path fill="#000000" fill-opacity="0.0" d="m3907.1963 798.4124l220.5669 0" fill-rule="nonzero"></path><path stroke="#b7b7b7" stroke-width="4.0" stroke-linejoin="round" stroke-linecap="butt" d="m3907.1963 798.4124l220.5669 0" fill-rule="nonzero"></path><path fill="#000000" fill-opacity="0.0" d="m3907.1833 816.91394l263.71655 0" fill-rule="nonzero"></path><path stroke="#b7b7b7" stroke-width="4.0" stroke-linejoin="round" stroke-linecap="butt" d="m3907.1833 816.91394l263.71655 0" fill-rule="nonzero"></path><path fill="#000000" fill-opacity="0.0" d="m3907.1833 834.6537l504.66138 0" fill-rule="nonzero"></path><path stroke="#b7b7b7" stroke-width="4.0" stroke-linejoin="round" stroke-linecap="butt" d="m3907.1833 834.6537l504.66138 0" fill-rule="nonzero"></path><path fill="#000000" fill-opacity="0.0" d="m4191.264 798.4124l220.5669 0" fill-rule="nonzero"></path><path stroke="#b7b7b7" stroke-width="4.0" stroke-linejoin="round" stroke-linecap="butt" d="m4191.264 798.4124l220.5669 0" fill-rule="nonzero"></path><path fill="#efefef" d="m3864.3743 1008.1148l630.4885 0l0 67.55902l-630.4885 0z" fill-rule="nonzero"></path><path fill="#000000" fill-opacity="0.0" d="m3908.5867 1042.2865l263.71655 0" fill-rule="nonzero"></path><path stroke="#b7b7b7" stroke-width="4.0" stroke-linejoin="round" stroke-linecap="butt" d="m3908.5867 1042.2865l263.71655 0" fill-rule="nonzero"></path><path fill="#000000" fill-opacity="0.0" d="m4201.953 1021.14594l220.5669 0" fill-rule="nonzero"></path><path stroke="#b7b7b7" stroke-width="4.0" stroke-linejoin="round" stroke-linecap="butt" d="m4201.953 1021.14594l220.5669 0" fill-rule="nonzero"></path><path fill="#000000" fill-opacity="0.0" d="m3908.5867 1060.0262l504.66138 0" fill-rule="nonzero"></path><path stroke="#b7b7b7" stroke-width="4.0" stroke-linejoin="round" stroke-linecap="butt" d="m3908.5867 1060.0262l504.66138 0" fill-rule="nonzero"></path><path fill="#efefef" d="m3864.3743 1083.2377l630.4885 0l0 67.55908l-630.4885 0z" fill-rule="nonzero"></path><path fill="#000000" fill-opacity="0.0" d="m3908.5996 1098.9078l220.5669 0" fill-rule="nonzero"></path><path stroke="#b7b7b7" stroke-width="4.0" stroke-linejoin="round" stroke-linecap="butt" d="m3908.5996 1098.9078l220.5669 0" fill-rule="nonzero"></path><path fill="#000000" fill-opacity="0.0" d="m4053.2632 1117.0298l263.7168 0" fill-rule="nonzero"></path><path stroke="#b7b7b7" stroke-width="4.0" stroke-linejoin="round" stroke-linecap="butt" d="m4053.2632 1117.0298l263.7168 0" fill-rule="nonzero"></path><path fill="#000000" fill-opacity="0.0" d="m4192.6675 1098.9078l220.5669 0" fill-rule="nonzero"></path><path stroke="#b7b7b7" stroke-width="4.0" stroke-linejoin="round" stroke-linecap="butt" d="m4192.6675 1098.9078l220.5669 0" fill-rule="nonzero"></path><path fill="#000000" fill-opacity="0.0" d="m3908.5867 1135.1492l266.29907 0" fill-rule="nonzero"></path><path stroke="#b7b7b7" stroke-width="4.0" stroke-linejoin="round" stroke-linecap="butt" d="m3908.5867 1135.1492l266.29907 0" fill-rule="nonzero"></path><path fill="#efefef" d="m3864.3743 1158.363l630.4885 0l0 32.472534l-630.4885 0z" fill-rule="nonzero"></path><path fill="#cccccc" d="m44.247604 25.676285l0 0c0 -11.901178 9.647808 -21.548988 21.548988 -21.548988l86.19337 0l0 0c5.715149 0 11.196213 2.2703333 15.237427 6.311552c4.0412292 4.0412197 6.311554 9.522289 6.311554 15.237436l0 200.14612c0 11.901184 -9.647812 21.54898 -21.54898 21.54898l-86.19337 0c-11.90118 0 -21.548988 -9.647797 -21.548988 -21.54898z" fill-rule="nonzero"></path><path fill="#000000" fill-opacity="0.0" d="m92.50151 14.088746l35.307083 0" fill-rule="nonzero"></path><path stroke="#efefef" stroke-width="4.0" stroke-linejoin="round" stroke-linecap="butt" d="m92.50151 14.088746l35.307083 0" fill-rule="nonzero"></path><path fill="#ffffff" d="m153.48387 15.610207l0 0c0 -1.0262928 0.951828 -1.8582678 2.1259766 -1.8582678l0 0c1.1741638 0 2.1259918 0.831975 2.1259918 1.8582678l0 0c0 1.0262928 -0.951828 1.8582668 -2.1259918 1.8582668l0 0c-1.1741486 0 -2.1259766 -0.831974 -2.1259766 -1.8582668z" fill-rule="nonzero"></path><path stroke="#ffffff" stroke-width="2.0" stroke-linejoin="round" stroke-linecap="butt" d="m153.48387 15.610207l0 0c0 -1.0262928 0.951828 -1.8582678 2.1259766 -1.8582678l0 0c1.1741638 0 2.1259918 0.831975 2.1259918 1.8582678l0 0c0 1.0262928 -0.951828 1.8582668 -2.1259918 1.8582668l0 0c-1.1741486 0 -2.1259766 -0.831974 -2.1259766 -1.8582668z" fill-rule="nonzero"></path><path fill="#434343" d="m50.025898 25.633356l118.23622 0l0 190.86613l-118.23622 0z" fill-rule="nonzero"></path><path fill="#ffffff" d="m98.40225 231.39566l0 0c0 -5.018387 4.195122 -9.086609 9.370079 -9.086609l0 0c2.4850998 0 4.868416 0.9573364 6.625641 2.6614075c1.7572327 1.704071 2.7444382 4.0152893 2.7444382 6.4252014l0 0c0 5.018402 -4.1951294 9.086624 -9.370079 9.086624l0 0c-5.1749573 0 -9.370079 -4.068222 -9.370079 -9.086624z" fill-rule="nonzero"></path><path fill="#4a86e8" d="m51.626522 96.997444l115.055115 0l0 31.30709l-115.055115 0z" fill-rule="nonzero"></path><path fill="#000000" fill-opacity="0.0" d="m59.771336 104.08321l40.251965 0" fill-rule="nonzero"></path><path stroke="#f3f3f3" stroke-width="2.0" stroke-linejoin="round" stroke-linecap="butt" d="m59.771336 104.08321l40.251965 0" fill-rule="nonzero"></path><path fill="#000000" fill-opacity="0.0" d="m59.69545 112.326996l92.09448 0" fill-rule="nonzero"></path><path stroke="#f3f3f3" stroke-width="2.0" stroke-linejoin="round" stroke-linecap="butt" d="m59.69545 112.326996l92.09448 0" fill-rule="nonzero"></path><path fill="#efefef" d="m51.626522 62.181313l115.055115 0l0 31.307083l-115.055115 0z" fill-rule="nonzero"></path><path fill="#000000" fill-opacity="0.0" d="m59.69714 69.443596l40.251965 0" fill-rule="nonzero"></path><path stroke="#b7b7b7" stroke-width="2.0" stroke-linejoin="round" stroke-linecap="butt" d="m59.69714 69.443596l40.251965 0" fill-rule="nonzero"></path><path fill="#000000" fill-opacity="0.0" d="m59.694744 78.350075l48.125988 0" fill-rule="nonzero"></path><path stroke="#b7b7b7" stroke-width="2.0" stroke-linejoin="round" stroke-linecap="butt" d="m59.694744 78.350075l48.125988 0" fill-rule="nonzero"></path><path fill="#000000" fill-opacity="0.0" d="m59.694744 86.23954l92.09448 0" fill-rule="nonzero"></path><path stroke="#b7b7b7" stroke-width="2.0" stroke-linejoin="round" stroke-linecap="butt" d="m59.694744 86.23954l92.09448 0" fill-rule="nonzero"></path><path fill="#000000" fill-opacity="0.0" d="m111.53625 69.443596l40.251976 0" fill-rule="nonzero"></path><path stroke="#b7b7b7" stroke-width="2.0" stroke-linejoin="round" stroke-linecap="butt" d="m111.53625 69.443596l40.251976 0" fill-rule="nonzero"></path><path fill="#efefef" d="m51.626522 131.81358l115.055115 0l0 31.307083l-115.055115 0z" fill-rule="nonzero"></path><path fill="#000000" fill-opacity="0.0" d="m59.694744 145.11627l48.125988 0" fill-rule="nonzero"></path><path stroke="#b7b7b7" stroke-width="2.0" stroke-linejoin="round" stroke-linecap="butt" d="m59.694744 145.11627l48.125988 0" fill-rule="nonzero"></path><path fill="#000000" fill-opacity="0.0" d="m113.23079 137.85281l40.25197 0" fill-rule="nonzero"></path><path stroke="#b7b7b7" stroke-width="2.0" stroke-linejoin="round" stroke-linecap="butt" d="m113.23079 137.85281l40.25197 0" fill-rule="nonzero"></path><path fill="#000000" fill-opacity="0.0" d="m59.694744 155.87181l92.09448 0" fill-rule="nonzero"></path><path stroke="#b7b7b7" stroke-width="2.0" stroke-linejoin="round" stroke-linecap="butt" d="m59.694744 155.87181l92.09448 0" fill-rule="nonzero"></path><path fill="#efefef" d="m51.626522 166.62912l115.055115 0l0 31.307083l-115.055115 0z" fill-rule="nonzero"></path><path fill="#000000" fill-opacity="0.0" d="m59.69714 173.8914l40.251965 0" fill-rule="nonzero"></path><path stroke="#b7b7b7" stroke-width="2.0" stroke-linejoin="round" stroke-linecap="butt" d="m59.69714 173.8914l40.251965 0" fill-rule="nonzero"></path><path fill="#000000" fill-opacity="0.0" d="m92.50077 182.28337l48.125984 0" fill-rule="nonzero"></path><path stroke="#b7b7b7" stroke-width="2.0" stroke-linejoin="round" stroke-linecap="butt" d="m92.50077 182.28337l48.125984 0" fill-rule="nonzero"></path><path fill="#000000" fill-opacity="0.0" d="m111.53625 173.8914l40.251976 0" fill-rule="nonzero"></path><path stroke="#b7b7b7" stroke-width="2.0" stroke-linejoin="round" stroke-linecap="butt" d="m111.53625 173.8914l40.251976 0" fill-rule="nonzero"></path><path fill="#000000" fill-opacity="0.0" d="m59.458523 191.18866l48.598423 0" fill-rule="nonzero"></path><path stroke="#b7b7b7" stroke-width="2.0" stroke-linejoin="round" stroke-linecap="butt" d="m59.458523 191.18866l48.598423 0" fill-rule="nonzero"></path><path fill="#efefef" d="m51.626522 201.4458l115.055115 0l0 15.05513l-115.055115 0z" fill-rule="nonzero"></path><path fill="#000000" fill-opacity="0.0" d="m59.440624 121.04122l40.251972 0" fill-rule="nonzero"></path><path stroke="#f3f3f3" stroke-width="2.0" stroke-linejoin="round" stroke-linecap="butt" d="m59.440624 121.04122l40.251972 0" fill-rule="nonzero"></path><path fill="#efefef" d="m51.626522 27.801767l115.055115 0l0 31.307089l-115.055115 0z" fill-rule="nonzero"></path><path fill="#000000" fill-opacity="0.0" d="m59.694744 41.104458l48.125988 0" fill-rule="nonzero"></path><path stroke="#b7b7b7" stroke-width="2.0" stroke-linejoin="round" stroke-linecap="butt" d="m59.694744 41.104458l48.125988 0" fill-rule="nonzero"></path><path fill="#000000" fill-opacity="0.0" d="m59.694744 51.86l92.09448 0" fill-rule="nonzero"></path><path stroke="#b7b7b7" stroke-width="2.0" stroke-linejoin="round" stroke-linecap="butt" d="m59.694744 51.86l92.09448 0" fill-rule="nonzero"></path><path fill="#000000" fill-opacity="0.0" d="m113.23079 33.841007l40.25197 0" fill-rule="nonzero"></path><path stroke="#b7b7b7" stroke-width="2.0" stroke-linejoin="round" stroke-linecap="butt" d="m113.23079 33.841007l40.25197 0" fill-rule="nonzero"></path><path fill="#4a86e8" d="m11.120899 108.4988l8.821476 0l0 -8.821472l8.304226 0l0 8.821472l8.821476 0l0 8.30423l-8.821476 0l0 8.821472l-8.304226 0l0 -8.821472l-8.821476 0z" fill-rule="nonzero"></path></g></svg>

