<?xml version="1.0" standalone="yes"?>

<svg version="1.1" viewBox="0.0 0.0 141.0 253.0" fill="none" stroke="none" stroke-linecap="square" stroke-miterlimit="10" xmlns="http://www.w3.org/2000/svg" xmlns:xlink="http://www.w3.org/1999/xlink"><clipPath id="p.0"><path d="m0 0l141.0 0l0 253.0l-141.0 0l0 -253.0z" clip-rule="nonzero"></path></clipPath><g clip-path="url(#p.0)"><path fill="#000000" fill-opacity="0.0" d="m0 0l141.0 0l0 253.0l-141.0 0z" fill-rule="nonzero"></path><path fill="#cccccc" d="m6.4339557 26.761585l0 0c0 -11.901176 9.64781 -21.548986 21.548986 -21.548986l86.19337 0l0 0c5.715149 0 11.196213 2.2703333 15.237434 6.3115525c4.041214 4.0412188 6.311554 9.522287 6.311554 15.237434l0 200.14612c0 11.901184 -9.647812 21.548996 -21.548988 21.548996l-86.19337 0c-11.901176 0 -21.548986 -9.647812 -21.548986 -21.548996z" fill-rule="nonzero"></path><path fill="#1c4587" d="m12.21225 26.718658l118.23622 0l0 190.86613l-118.23622 0z" fill-rule="nonzero"></path><path fill="#cccccc" d="m3736.2627 785.55396l0 0c0 -48.312134 39.16455 -87.47681 87.47681 -87.47681l533.55005 0c23.200684 0 45.450684 9.216248 61.85547 25.621338c16.405273 16.40509 25.621582 38.65515 25.621582 61.85547l0 349.89673c0 48.312134 -39.16455 87.47681 -87.47705 87.47681l-533.55005 0c-48.312256 0 -87.47681 -39.164673 -87.47681 -87.47681z" fill-rule="nonzero"></path><path fill="#000000" fill-opacity="0.0" d="m4000.6843 719.57135l193.48022 0" fill-rule="nonzero"></path><path stroke="#efefef" stroke-width="4.0" stroke-linejoin="round" stroke-linecap="butt" d="m4000.6843 719.57135l193.48022 0" fill-rule="nonzero"></path><path fill="#ffffff" d="m4334.855 722.86035c0 -2.2178345 5.2177734 -4.015747 11.653809 -4.015747l0 0c6.436035 0 11.65332 1.7979126 11.65332 4.015747l0 0c0 2.2178345 -5.217285 4.015747 -11.65332 4.015747l0 0c-6.436035 0 -11.653809 -1.7979126 -11.653809 -4.015747z" fill-rule="nonzero"></path><path stroke="#ffffff" stroke-width="2.0" stroke-linejoin="round" stroke-linecap="butt" d="m4334.855 722.86035c0 -2.2178345 5.2177734 -4.015747 11.653809 -4.015747l0 0c6.436035 0 11.65332 1.7979126 11.65332 4.015747l0 0c0 2.2178345 -5.217285 4.015747 -11.65332 4.015747l0 0c-6.436035 0 -11.653809 -1.7979126 -11.653809 -4.015747z" fill-rule="nonzero"></path><path fill="#434343" d="m3767.9265 744.4816l647.9055 0l0 411.84247l-647.9055 0z" fill-rule="nonzero"></path><path fill="#ffffff" d="m4033.019 1188.463l0 0c0 -10.828247 22.985107 -19.606323 51.338623 -19.606323l0 0c28.35376 0 51.338623 8.778076 51.338623 19.606323l0 0c0 10.828247 -22.984863 19.606323 -51.338623 19.606323l0 0c-28.353516 0 -51.338623 -8.778076 -51.338623 -19.606323z" fill-rule="nonzero"></path><path fill="#4a86e8" d="m3776.6975 898.4668l630.4885 0l0 67.55908l-630.4885 0z" fill-rule="nonzero"></path><path fill="#000000" fill-opacity="0.0" d="m3821.3296 913.75604l220.5669 0" fill-rule="nonzero"></path><path stroke="#f3f3f3" stroke-width="4.0" stroke-linejoin="round" stroke-linecap="butt" d="m3821.3296 913.75604l220.5669 0" fill-rule="nonzero"></path><path fill="#000000" fill-opacity="0.0" d="m3821.3164 932.25757l504.66162 0" fill-rule="nonzero"></path><path stroke="#f3f3f3" stroke-width="4.0" stroke-linejoin="round" stroke-linecap="butt" d="m3821.3164 932.25757l504.66162 0" fill-rule="nonzero"></path><path fill="#000000" fill-opacity="0.0" d="m3821.3164 949.9973l504.66162 0" fill-rule="nonzero"></path><path stroke="#f3f3f3" stroke-width="4.0" stroke-linejoin="round" stroke-linecap="butt" d="m3821.3164 949.9973l504.66162 0" fill-rule="nonzero"></path><path fill="#efefef" d="m3776.6975 823.34265l630.4885 0l0 67.55902l-630.4885 0z" fill-rule="nonzero"></path><path fill="#000000" fill-opacity="0.0" d="m3820.9229 839.01276l220.56714 0" fill-rule="nonzero"></path><path stroke="#b7b7b7" stroke-width="4.0" stroke-linejoin="round" stroke-linecap="butt" d="m3820.9229 839.01276l220.56714 0" fill-rule="nonzero"></path><path fill="#000000" fill-opacity="0.0" d="m3820.91 857.5143l263.71655 0" fill-rule="nonzero"></path><path stroke="#b7b7b7" stroke-width="4.0" stroke-linejoin="round" stroke-linecap="butt" d="m3820.91 857.5143l263.71655 0" fill-rule="nonzero"></path><path fill="#000000" fill-opacity="0.0" d="m3820.91 875.254l504.66138 0" fill-rule="nonzero"></path><path stroke="#b7b7b7" stroke-width="4.0" stroke-linejoin="round" stroke-linecap="butt" d="m3820.91 875.254l504.66138 0" fill-rule="nonzero"></path><path fill="#000000" fill-opacity="0.0" d="m4104.9907 839.01276l220.5669 0" fill-rule="nonzero"></path><path stroke="#b7b7b7" stroke-width="4.0" stroke-linejoin="round" stroke-linecap="butt" d="m4104.9907 839.01276l220.5669 0" fill-rule="nonzero"></path><path fill="#4a86e8" d="m3514.7358 918.6504l208.48828 0l0 -13.629944l27.259766 27.259827l-27.259766 27.259827l0 -13.629883l-208.48828 0z" fill-rule="nonzero"></path><path fill="#efefef" d="m3775.2942 748.21844l630.48804 0l0 67.55908l-630.48804 0z" fill-rule="nonzero"></path><path fill="#000000" fill-opacity="0.0" d="m3819.5195 763.88855l220.5669 0" fill-rule="nonzero"></path><path stroke="#b7b7b7" stroke-width="4.0" stroke-linejoin="round" stroke-linecap="butt" d="m3819.5195 763.88855l220.5669 0" fill-rule="nonzero"></path><path fill="#000000" fill-opacity="0.0" d="m3819.5066 782.3901l263.71655 0" fill-rule="nonzero"></path><path stroke="#b7b7b7" stroke-width="4.0" stroke-linejoin="round" stroke-linecap="butt" d="m3819.5066 782.3901l263.71655 0" fill-rule="nonzero"></path><path fill="#000000" fill-opacity="0.0" d="m3819.5066 800.1299l504.66138 0" fill-rule="nonzero"></path><path stroke="#b7b7b7" stroke-width="4.0" stroke-linejoin="round" stroke-linecap="butt" d="m3819.5066 800.1299l504.66138 0" fill-rule="nonzero"></path><path fill="#000000" fill-opacity="0.0" d="m4103.5874 763.88855l220.5669 0" fill-rule="nonzero"></path><path stroke="#b7b7b7" stroke-width="4.0" stroke-linejoin="round" stroke-linecap="butt" d="m4103.5874 763.88855l220.5669 0" fill-rule="nonzero"></path><path fill="#efefef" d="m3776.6975 973.59094l630.4885 0l0 67.55908l-630.4885 0z" fill-rule="nonzero"></path><path fill="#000000" fill-opacity="0.0" d="m3820.91 1007.76263l263.71655 0" fill-rule="nonzero"></path><path stroke="#b7b7b7" stroke-width="4.0" stroke-linejoin="round" stroke-linecap="butt" d="m3820.91 1007.76263l263.71655 0" fill-rule="nonzero"></path><path fill="#000000" fill-opacity="0.0" d="m4114.2764 986.6221l220.5669 0" fill-rule="nonzero"></path><path stroke="#b7b7b7" stroke-width="4.0" stroke-linejoin="round" stroke-linecap="butt" d="m4114.2764 986.6221l220.5669 0" fill-rule="nonzero"></path><path fill="#000000" fill-opacity="0.0" d="m3820.91 1025.5024l504.66138 0" fill-rule="nonzero"></path><path stroke="#b7b7b7" stroke-width="4.0" stroke-linejoin="round" stroke-linecap="butt" d="m3820.91 1025.5024l504.66138 0" fill-rule="nonzero"></path><path fill="#efefef" d="m3776.6975 1048.7139l630.4885 0l0 67.55908l-630.4885 0z" fill-rule="nonzero"></path><path fill="#000000" fill-opacity="0.0" d="m3820.9229 1064.384l220.56714 0" fill-rule="nonzero"></path><path stroke="#b7b7b7" stroke-width="4.0" stroke-linejoin="round" stroke-linecap="butt" d="m3820.9229 1064.384l220.56714 0" fill-rule="nonzero"></path><path fill="#000000" fill-opacity="0.0" d="m3965.5864 1082.506l263.7168 0" fill-rule="nonzero"></path><path stroke="#b7b7b7" stroke-width="4.0" stroke-linejoin="round" stroke-linecap="butt" d="m3965.5864 1082.506l263.7168 0" fill-rule="nonzero"></path><path fill="#000000" fill-opacity="0.0" d="m4104.9907 1064.384l220.5669 0" fill-rule="nonzero"></path><path stroke="#b7b7b7" stroke-width="4.0" stroke-linejoin="round" stroke-linecap="butt" d="m4104.9907 1064.384l220.5669 0" fill-rule="nonzero"></path><path fill="#000000" fill-opacity="0.0" d="m3820.91 1100.6252l266.29907 0" fill-rule="nonzero"></path><path stroke="#b7b7b7" stroke-width="4.0" stroke-linejoin="round" stroke-linecap="butt" d="m3820.91 1100.6252l266.29907 0" fill-rule="nonzero"></path><path fill="#efefef" d="m3776.6975 1123.8392l630.4885 0l0 32.472412l-630.4885 0z" fill-rule="nonzero"></path><path fill="#cccccc" d="m3823.9395 820.0778l0 0c0 -48.312134 39.16455 -87.47687 87.47681 -87.47687l533.55005 0c23.200684 0 45.450684 9.216309 61.85547 25.621399c16.405273 16.40509 25.621582 38.65515 25.621582 61.85547l0 349.8968c0 48.31201 -39.16455 87.47681 -87.47705 87.47681l-533.55005 0c-48.312256 0 -87.47681 -39.164795 -87.47681 -87.47681z" fill-rule="nonzero"></path><path fill="#000000" fill-opacity="0.0" d="m4088.361 754.0952l193.48022 0" fill-rule="nonzero"></path><path stroke="#efefef" stroke-width="4.0" stroke-linejoin="round" stroke-linecap="butt" d="m4088.361 754.0952l193.48022 0" fill-rule="nonzero"></path><path fill="#ffffff" d="m4422.5317 757.3842c0 -2.2178345 5.2177734 -4.015747 11.653809 -4.015747l0 0c6.436035 0 11.65332 1.7979126 11.65332 4.015747l0 0c0 2.2178345 -5.217285 4.015747 -11.65332 4.015747l0 0c-6.436035 0 -11.653809 -1.7979126 -11.653809 -4.015747z" fill-rule="nonzero"></path><path stroke="#ffffff" stroke-width="2.0" stroke-linejoin="round" stroke-linecap="butt" d="m4422.5317 757.3842c0 -2.2178345 5.2177734 -4.015747 11.653809 -4.015747l0 0c6.436035 0 11.65332 1.7979126 11.65332 4.015747l0 0c0 2.2178345 -5.217285 4.015747 -11.65332 4.015747l0 0c-6.436035 0 -11.653809 -1.7979126 -11.653809 -4.015747z" fill-rule="nonzero"></path><path fill="#434343" d="m3855.6033 779.0055l647.9055 0l0 411.84253l-647.9055 0z" fill-rule="nonzero"></path><path fill="#ffffff" d="m4120.696 1222.9868l0 0c0 -10.828247 22.985352 -19.606323 51.338867 -19.606323l0 0c28.353516 0 51.33838 8.778076 51.33838 19.606323l0 0c0 10.828247 -22.984863 19.606323 -51.33838 19.606323l0 0c-28.353516 0 -51.338867 -8.778076 -51.338867 -19.606323z" fill-rule="nonzero"></path><path fill="#4a86e8" d="m3864.3743 932.99066l630.4885 0l0 67.55902l-630.4885 0z" fill-rule="nonzero"></path><path fill="#000000" fill-opacity="0.0" d="m3909.0063 948.2799l220.5669 0" fill-rule="nonzero"></path><path stroke="#f3f3f3" stroke-width="4.0" stroke-linejoin="round" stroke-linecap="butt" d="m3909.0063 948.2799l220.5669 0" fill-rule="nonzero"></path><path fill="#000000" fill-opacity="0.0" d="m3908.9932 966.78143l504.66162 0" fill-rule="nonzero"></path><path stroke="#f3f3f3" stroke-width="4.0" stroke-linejoin="round" stroke-linecap="butt" d="m3908.9932 966.78143l504.66162 0" fill-rule="nonzero"></path><path fill="#000000" fill-opacity="0.0" d="m3908.9932 984.5212l504.66162 0" fill-rule="nonzero"></path><path stroke="#f3f3f3" stroke-width="4.0" stroke-linejoin="round" stroke-linecap="butt" d="m3908.9932 984.5212l504.66162 0" fill-rule="nonzero"></path><path fill="#efefef" d="m3864.3743 857.86646l630.4885 0l0 67.55908l-630.4885 0z" fill-rule="nonzero"></path><path fill="#000000" fill-opacity="0.0" d="m3908.5996 873.5366l220.5669 0" fill-rule="nonzero"></path><path stroke="#b7b7b7" stroke-width="4.0" stroke-linejoin="round" stroke-linecap="butt" d="m3908.5996 873.5366l220.5669 0" fill-rule="nonzero"></path><path fill="#000000" fill-opacity="0.0" d="m3908.5867 892.0381l263.71655 0" fill-rule="nonzero"></path><path stroke="#b7b7b7" stroke-width="4.0" stroke-linejoin="round" stroke-linecap="butt" d="m3908.5867 892.0381l263.71655 0" fill-rule="nonzero"></path><path fill="#000000" fill-opacity="0.0" d="m3908.5867 909.7779l504.66138 0" fill-rule="nonzero"></path><path stroke="#b7b7b7" stroke-width="4.0" stroke-linejoin="round" stroke-linecap="butt" d="m3908.5867 909.7779l504.66138 0" fill-rule="nonzero"></path><path fill="#000000" fill-opacity="0.0" d="m4192.6675 873.5366l220.5669 0" fill-rule="nonzero"></path><path stroke="#b7b7b7" stroke-width="4.0" stroke-linejoin="round" stroke-linecap="butt" d="m4192.6675 873.5366l220.5669 0" fill-rule="nonzero"></path><path fill="#4a86e8" d="m3602.4126 953.1742l208.48828 0l0 -13.629883l27.259766 27.259827l-27.259766 27.259827l0 -13.629944l-208.48828 0z" fill-rule="nonzero"></path><path fill="#efefef" d="m3862.971 782.7423l630.48804 0l0 67.55902l-630.48804 0z" fill-rule="nonzero"></path><path fill="#000000" fill-opacity="0.0" d="m3907.1963 798.4124l220.5669 0" fill-rule="nonzero"></path><path stroke="#b7b7b7" stroke-width="4.0" stroke-linejoin="round" stroke-linecap="butt" d="m3907.1963 798.4124l220.5669 0" fill-rule="nonzero"></path><path fill="#000000" fill-opacity="0.0" d="m3907.1833 816.91394l263.71655 0" fill-rule="nonzero"></path><path stroke="#b7b7b7" stroke-width="4.0" stroke-linejoin="round" stroke-linecap="butt" d="m3907.1833 816.91394l263.71655 0" fill-rule="nonzero"></path><path fill="#000000" fill-opacity="0.0" d="m3907.1833 834.6537l504.66138 0" fill-rule="nonzero"></path><path stroke="#b7b7b7" stroke-width="4.0" stroke-linejoin="round" stroke-linecap="butt" d="m3907.1833 834.6537l504.66138 0" fill-rule="nonzero"></path><path fill="#000000" fill-opacity="0.0" d="m4191.264 798.4124l220.5669 0" fill-rule="nonzero"></path><path stroke="#b7b7b7" stroke-width="4.0" stroke-linejoin="round" stroke-linecap="butt" d="m4191.264 798.4124l220.5669 0" fill-rule="nonzero"></path><path fill="#efefef" d="m3864.3743 1008.1148l630.4885 0l0 67.55902l-630.4885 0z" fill-rule="nonzero"></path><path fill="#000000" fill-opacity="0.0" d="m3908.5867 1042.2865l263.71655 0" fill-rule="nonzero"></path><path stroke="#b7b7b7" stroke-width="4.0" stroke-linejoin="round" stroke-linecap="butt" d="m3908.5867 1042.2865l263.71655 0" fill-rule="nonzero"></path><path fill="#000000" fill-opacity="0.0" d="m4201.953 1021.14594l220.5669 0" fill-rule="nonzero"></path><path stroke="#b7b7b7" stroke-width="4.0" stroke-linejoin="round" stroke-linecap="butt" d="m4201.953 1021.14594l220.5669 0" fill-rule="nonzero"></path><path fill="#000000" fill-opacity="0.0" d="m3908.5867 1060.0262l504.66138 0" fill-rule="nonzero"></path><path stroke="#b7b7b7" stroke-width="4.0" stroke-linejoin="round" stroke-linecap="butt" d="m3908.5867 1060.0262l504.66138 0" fill-rule="nonzero"></path><path fill="#efefef" d="m3864.3743 1083.2377l630.4885 0l0 67.55908l-630.4885 0z" fill-rule="nonzero"></path><path fill="#000000" fill-opacity="0.0" d="m3908.5996 1098.9078l220.5669 0" fill-rule="nonzero"></path><path stroke="#b7b7b7" stroke-width="4.0" stroke-linejoin="round" stroke-linecap="butt" d="m3908.5996 1098.9078l220.5669 0" fill-rule="nonzero"></path><path fill="#000000" fill-opacity="0.0" d="m4053.2632 1117.0298l263.7168 0" fill-rule="nonzero"></path><path stroke="#b7b7b7" stroke-width="4.0" stroke-linejoin="round" stroke-linecap="butt" d="m4053.2632 1117.0298l263.7168 0" fill-rule="nonzero"></path><path fill="#000000" fill-opacity="0.0" d="m4192.6675 1098.9078l220.5669 0" fill-rule="nonzero"></path><path stroke="#b7b7b7" stroke-width="4.0" stroke-linejoin="round" stroke-linecap="butt" d="m4192.6675 1098.9078l220.5669 0" fill-rule="nonzero"></path><path fill="#000000" fill-opacity="0.0" d="m3908.5867 1135.1492l266.29907 0" fill-rule="nonzero"></path><path stroke="#b7b7b7" stroke-width="4.0" stroke-linejoin="round" stroke-linecap="butt" d="m3908.5867 1135.1492l266.29907 0" fill-rule="nonzero"></path><path fill="#efefef" d="m3864.3743 1158.363l630.4885 0l0 32.472534l-630.4885 0z" fill-rule="nonzero"></path><path fill="#000000" fill-opacity="0.0" d="m54.687862 15.174047l35.307087 0" fill-rule="nonzero"></path><path stroke="#efefef" stroke-width="4.0" stroke-linejoin="round" stroke-linecap="butt" d="m54.687862 15.174047l35.307087 0" fill-rule="nonzero"></path><path fill="#ffffff" d="m115.67022 16.695509l0 0c0 -1.0262938 0.95183563 -1.8582687 2.1259842 -1.8582687l0 0c1.1741562 0 2.1259842 0.831975 2.1259842 1.8582687l0 0c0 1.0262928 -0.951828 1.8582668 -2.1259842 1.8582668l0 0c-1.1741486 0 -2.1259842 -0.831974 -2.1259842 -1.8582668z" fill-rule="nonzero"></path><path stroke="#ffffff" stroke-width="2.0" stroke-linejoin="round" stroke-linecap="butt" d="m115.67022 16.695509l0 0c0 -1.0262938 0.95183563 -1.8582687 2.1259842 -1.8582687l0 0c1.1741562 0 2.1259842 0.831975 2.1259842 1.8582687l0 0c0 1.0262928 -0.951828 1.8582668 -2.1259842 1.8582668l0 0c-1.1741486 0 -2.1259842 -0.831974 -2.1259842 -1.8582668z" fill-rule="nonzero"></path><path fill="#ffffff" d="m60.5886 232.48097l0 0c0 -5.018402 4.1951294 -9.086624 9.370079 -9.086624l0 0c2.4850998 0 4.868416 0.9573364 6.6256485 2.6614075c1.7572327 1.704071 2.7444305 4.0152893 2.7444305 6.4252167l0 0c0 5.018402 -4.1951294 9.086609 -9.370079 9.086609l0 0c-5.1749496 0 -9.370079 -4.068207 -9.370079 -9.086609z" fill-rule="nonzero"></path><path fill="#d9d9d9" d="m46.45013 26.723097l-4.5013123 23.000002l10.0 18.0l-1.4986877 15.501312l-6.5013123 -1.5013123l-3.0 -7.0l-8.498688 0.50131226l-2.5013123 18.498688l7.0 14.0l15.501312 14.0l2.0 21.0l-3.5013123 17.501312l-9.0 7.4986877l-4.4986877 24.0l4.0 14.0l8.498688 -2.0l5.5013123 -12.0l9.498692 -10.0l16.0 3.0l6.0 14.0l10.0 10.0l11.501312 7.0l22.498688 0l-0.49868774 -189.49869z" fill-rule="nonzero"></path><path fill="#000000" fill-opacity="0.0" d="m64.50164 28.0c0.16666412 2.833334 -0.5 12.749783 1.0 17.0c1.5 4.2502174 3.7502213 1.417759 8.0 8.501312c4.2497787 7.0835533 14.248909 22.166664 17.498688 34.0c3.2497787 11.833336 0.4164505 28.0 2.0 37.0c1.5835495 9.0 3.3346481 10.750214 7.5013123 17.0c4.166664 6.2497864 12.665352 15.332016 17.498688 20.498688c4.833336 5.1666718 9.584427 8.751099 11.50132 10.501312" fill-rule="nonzero"></path><path stroke="#666666" stroke-width="1.0" stroke-linejoin="round" stroke-linecap="butt" stroke-dasharray="4.0,3.0" d="m64.50164 28.0c0.16666412 2.833334 -0.5 12.749783 1.0 17.0c1.5 4.2502174 3.7502213 1.417759 8.0 8.501312c4.2497787 7.0835533 14.248909 22.166664 17.498688 34.0c3.2497787 11.833336 0.4164505 28.0 2.0 37.0c1.5835495 9.0 3.3346481 10.750214 7.5013123 17.0c4.166664 6.2497864 12.665352 15.332016 17.498688 20.498688c4.833336 5.1666718 9.584427 8.751099 11.50132 10.501312" fill-rule="nonzero"></path><path fill="#000000" fill-opacity="0.0" d="m59.501312 28.501312c0.74978256 2.0 3.1653557 8.333332 4.4986877 12.0c1.3333359 3.666668 4.084427 0.66666794 3.5013123 10.0c-0.5831146 9.333332 -6.166668 34.833336 -7.0 46.0c-0.83333206 11.166664 -0.083114624 12.250221 2.0 21.0c2.0831146 8.749779 7.248909 22.915573 10.498688 31.498688c3.2497787 8.583115 4.9164505 14.166672 9.0 20.0c4.0835495 5.8333282 10.751091 12.249786 15.501312 15.0c4.7502213 2.7502136 9.333336 -2.4155731 13.0 1.5013123c3.6666641 3.9168854 5.9168854 17.0 9.0 22.0c3.0831146 5.0 7.915573 6.6666718 9.498688 8.0" fill-rule="nonzero"></path><path stroke="#666666" stroke-width="2.0" stroke-linejoin="round" stroke-linecap="butt" d="m59.501312 28.501312c0.74978256 2.0 3.1653557 8.333332 4.4986877 12.0c1.3333359 3.666668 4.084427 0.66666794 3.5013123 10.0c-0.5831146 9.333332 -6.166668 34.833336 -7.0 46.0c-0.83333206 11.166664 -0.083114624 12.250221 2.0 21.0c2.0831146 8.749779 7.248909 22.915573 10.498688 31.498688c3.2497787 8.583115 4.9164505 14.166672 9.0 20.0c4.0835495 5.8333282 10.751091 12.249786 15.501312 15.0c4.7502213 2.7502136 9.333336 -2.4155731 13.0 1.5013123c3.6666641 3.9168854 5.9168854 17.0 9.0 22.0c3.0831146 5.0 7.915573 6.6666718 9.498688 8.0" fill-rule="nonzero"></path><path fill="#000000" fill-opacity="0.0" d="m60.501312 97.99983c2.833332 -1.2497787 11.5835495 -6.49868 17.0 -7.49868c5.4164505 -1.0 9.915573 0.832016 15.498688 1.4986801c5.5831146 0.66667175 11.749779 2.00132 18.0 2.50132c6.2502213 0.5 16.251091 0.41557312 19.501312 0.4986801" fill-rule="nonzero"></path><path stroke="#666666" stroke-width="1.0" stroke-linejoin="round" stroke-linecap="butt" stroke-dasharray="4.0,3.0" d="m60.501312 97.99983c2.833332 -1.2497787 11.5835495 -6.49868 17.0 -7.49868c5.4164505 -1.0 9.915573 0.832016 15.498688 1.4986801c5.5831146 0.66667175 11.749779 2.00132 18.0 2.50132c6.2502213 0.5 16.251091 0.41557312 19.501312 0.4986801" fill-rule="nonzero"></path><path fill="#000000" fill-opacity="0.0" d="m123.000656 27.0c-0.9164505 5.7502174 -4.415573 24.751095 -5.4986877 34.501312c-1.0831146 9.750221 -1.0831146 17.250221 -1.0 24.0c0.083114624 6.7497787 0.33202362 4.665352 1.4986877 16.498688c1.1666641 11.833336 4.9177628 42.584427 5.5013123 54.501312c0.5835495 11.916885 -1.2497787 8.5 -2.0 17.0c-0.75022125 8.5 -2.0844269 28.333328 -2.5013123 34.0" fill-rule="nonzero"></path><path stroke="#666666" stroke-width="2.0" stroke-linejoin="round" stroke-linecap="butt" d="m123.000656 27.0c-0.9164505 5.7502174 -4.415573 24.751095 -5.4986877 34.501312c-1.0831146 9.750221 -1.0831146 17.250221 -1.0 24.0c0.083114624 6.7497787 0.33202362 4.665352 1.4986877 16.498688c1.1666641 11.833336 4.9177628 42.584427 5.5013123 54.501312c0.5835495 11.916885 -1.2497787 8.5 -2.0 17.0c-0.75022125 8.5 -2.0844269 28.333328 -2.5013123 34.0" fill-rule="nonzero"></path><path fill="#000000" fill-opacity="0.0" d="m117.0 70.50131c-2.1666641 4.4260025 -9.0 17.704002 -13.0 26.556c-4.0 8.851997 -8.333336 16.04425 -11.0 26.556c-2.6666641 10.511749 -5.0835495 25.910782 -5.0 36.514496c0.0835495 10.603714 3.3346481 20.745667 5.5013123 27.107803c2.1666641 6.362137 5.9986877 7.1922455 7.4986877 11.065002c1.5 3.8727417 1.251091 10.142914 1.5013123 12.171494" fill-rule="nonzero"></path><path stroke="#666666" stroke-width="1.0" stroke-linejoin="round" stroke-linecap="butt" stroke-dasharray="4.0,3.0" d="m117.0 70.50131c-2.1666641 4.4260025 -9.0 17.704002 -13.0 26.556c-4.0 8.851997 -8.333336 16.04425 -11.0 26.556c-2.6666641 10.511749 -5.0835495 25.910782 -5.0 36.514496c0.0835495 10.603714 3.3346481 20.745667 5.5013123 27.107803c2.1666641 6.362137 5.9986877 7.1922455 7.4986877 11.065002c1.5 3.8727417 1.251091 10.142914 1.5013123 12.171494" fill-rule="nonzero"></path><path fill="#000000" fill-opacity="0.0" d="m41.212597 174.0c4.2903786 -0.9164429 17.684479 -3.4155731 25.742252 -5.4986877c8.057777 -2.0831146 14.651001 -4.6666718 22.6044 -7.0c7.9533997 -2.3333282 18.209099 -5.916443 25.115997 -7.0c6.906906 -1.0835571 13.604507 0.41557312 16.325409 0.49868774" fill-rule="nonzero"></path><path stroke="#666666" stroke-width="1.0" stroke-linejoin="round" stroke-linecap="butt" stroke-dasharray="4.0,3.0" d="m41.212597 174.0c4.2903786 -0.9164429 17.684479 -3.4155731 25.742252 -5.4986877c8.057777 -2.0831146 14.651001 -4.6666718 22.6044 -7.0c7.9533997 -2.3333282 18.209099 -5.916443 25.115997 -7.0c6.906906 -1.0835571 13.604507 0.41557312 16.325409 0.49868774" fill-rule="nonzero"></path><path fill="#434343" d="m54.687664 105.002625l12.000004 0l0 9.599998l-6.000004 2.4000015l-6.0 -2.4000015z" fill-rule="nonzero"></path><path fill="#000000" fill-opacity="0.0" d="m48.750656 96.45687l25.984253 0l0 32.472435l-25.984253 0z" fill-rule="nonzero"></path><path fill="#efefef" d="m58.07878 111.63687l0.75 -0.0625q0.078125 0.53125 0.375 0.8125q0.296875 0.265625 0.71875 0.265625q0.515625 0 0.859375 -0.375q0.359375 -0.390625 0.359375 -1.015625q0 -0.609375 -0.34375 -0.953125q-0.34375 -0.34375 -0.890625 -0.34375q-0.328125 0 -0.609375 0.15625q-0.265625 0.140625 -0.421875 0.390625l-0.671875 -0.078125l0.5625 -2.953125l2.84375 0l0 0.671875l-2.28125 0l-0.3125 1.546875q0.515625 -0.359375 1.078125 -0.359375q0.75 0 1.265625 0.515625q0.515625 0.515625 0.515625 1.34375q0 0.765625 -0.453125 1.34375q-0.546875 0.6875 -1.5 0.6875q-0.78125 0 -1.28125 -0.4375q-0.484375 -0.4375 -0.5625 -1.15625z" fill-rule="nonzero"></path><path fill="#434343" d="m114.32546 105.53543l12.0 0l0 9.599998l-6.0 2.4000015l-6.0 -2.4000015z" fill-rule="nonzero"></path><path fill="#000000" fill-opacity="0.0" d="m106.18471 96.89809l31.338577 0l0 32.472443l-31.338577 0z" fill-rule="nonzero"></path><path fill="#efefef" d="m118.16908 113.57809l-0.703125 0l0 -4.484375q-0.25 0.25 -0.671875 0.5q-0.40625 0.234375 -0.734375 0.34375l0 -0.671875q0.59375 -0.28125 1.03125 -0.671875q0.4375 -0.390625 0.625 -0.765625l0.453125 0l0 5.75zm1.7929688 -1.5l0.75 -0.0625q0.078125 0.53125 0.375 0.8125q0.296875 0.265625 0.71875 0.265625q0.515625 0 0.859375 -0.375q0.359375 -0.390625 0.359375 -1.015625q0 -0.609375 -0.34375 -0.953125q-0.34375 -0.34375 -0.890625 -0.34375q-0.328125 0 -0.609375 0.15625q-0.265625 0.140625 -0.421875 0.390625l-0.671875 -0.078125l0.5625 -2.953125l2.84375 0l0 0.671875l-2.28125 0l-0.3125 1.546875q0.515625 -0.359375 1.078125 -0.359375q0.75 0 1.265625 0.515625q0.515625 0.515625 0.515625 1.34375q0 0.765625 -0.453125 1.34375q-0.546875 0.6875 -1.5 0.6875q-0.78125 0 -1.28125 -0.4375q-0.484375 -0.4375 -0.5625 -1.15625z" fill-rule="nonzero"></path><path fill="#ff9900" d="m70.301834 69.27821l3.6063004 -3.6063004l3.6063004 3.6063004l-3.6063004 3.6063004z" fill-rule="nonzero"></path><path fill="#ff9900" d="m86.96326 60.154854l3.6063004 -3.6062965l3.6062927 3.6062965l-3.6062927 3.6063004z" fill-rule="nonzero"></path><path fill="#ff9900" d="m83.79002 74.10761l3.6063004 -3.6063004l3.6063004 3.6063004l-3.6063004 3.6063004z" fill-rule="nonzero"></path><path fill="#4a86e8" d="m60.587925 136.60892l3.6063042 -3.6062927l3.6062927 3.6062927l-3.6062927 3.606308z" fill-rule="nonzero"></path><path fill="#4a86e8" d="m72.115486 137.62204l3.6063004 -3.6062927l3.6063004 3.6062927l-3.6063004 3.606308z" fill-rule="nonzero"></path><path fill="#4a86e8" d="m66.35171 147.59448l3.6063004 -3.6062927l3.6063004 3.6062927l-3.6063004 3.606308z" fill-rule="nonzero"></path><path fill="#4a86e8" d="m112.708664 140.48557l3.6063004 -3.6062927l3.6062927 3.6062927l-3.6062927 3.6062927z" fill-rule="nonzero"></path><path fill="#4a86e8" d="m114.18898 149.02625l3.6062927 -3.6062927l3.6063004 3.6062927l-3.6063004 3.606308z" fill-rule="nonzero"></path><path fill="#ff9900" d="m76.843834 55.496063l3.6063004 -3.6063004l3.6062927 3.6063004l-3.6062927 3.6063004z" fill-rule="nonzero"></path><path fill="#000000" fill-opacity="0.0" d="m14.103027 34.501312l113.41732 0" fill-rule="nonzero"></path><path stroke="#efefef" stroke-width="1.0" stroke-linejoin="round" stroke-linecap="butt" stroke-dasharray="1.0,3.0" d="m14.103027 34.501312l113.41732 0" fill-rule="nonzero"></path><path fill="#000000" fill-opacity="0.0" d="m13.762108 47.50141l113.41732 0" fill-rule="nonzero"></path><path stroke="#efefef" stroke-width="1.0" stroke-linejoin="round" stroke-linecap="butt" stroke-dasharray="1.0,3.0" d="m13.762108 47.50141l113.41732 0" fill-rule="nonzero"></path><path fill="#000000" fill-opacity="0.0" d="m14.62951 75.34021l113.41732 0" fill-rule="nonzero"></path><path stroke="#efefef" stroke-width="1.0" stroke-linejoin="round" stroke-linecap="butt" stroke-dasharray="1.0,3.0" d="m14.62951 75.34021l113.41732 0" fill-rule="nonzero"></path><path fill="#000000" fill-opacity="0.0" d="m14.970428 62.340107l113.41733 0" fill-rule="nonzero"></path><path stroke="#efefef" stroke-width="1.0" stroke-linejoin="round" stroke-linecap="butt" stroke-dasharray="1.0,3.0" d="m14.970428 62.340107l113.41733 0" fill-rule="nonzero"></path><path fill="#000000" fill-opacity="0.0" d="m14.707188 86.877045l113.41733 0" fill-rule="nonzero"></path><path stroke="#efefef" stroke-width="1.0" stroke-linejoin="round" stroke-linecap="butt" stroke-dasharray="1.0,3.0" d="m14.707188 86.877045l113.41733 0" fill-rule="nonzero"></path><path fill="#000000" fill-opacity="0.0" d="m14.366268 99.877144l113.41733 0" fill-rule="nonzero"></path><path stroke="#efefef" stroke-width="1.0" stroke-linejoin="round" stroke-linecap="butt" stroke-dasharray="1.0,3.0" d="m14.366268 99.877144l113.41733 0" fill-rule="nonzero"></path><path fill="#000000" fill-opacity="0.0" d="m15.574589 114.715836l113.41733 0" fill-rule="nonzero"></path><path stroke="#efefef" stroke-width="1.0" stroke-linejoin="round" stroke-linecap="butt" stroke-dasharray="1.0,3.0" d="m15.574589 114.715836l113.41733 0" fill-rule="nonzero"></path><path fill="#000000" fill-opacity="0.0" d="m15.23367 127.715935l113.41731 0" fill-rule="nonzero"></path><path stroke="#efefef" stroke-width="1.0" stroke-linejoin="round" stroke-linecap="butt" stroke-dasharray="1.0,3.0" d="m15.23367 127.715935l113.41731 0" fill-rule="nonzero"></path><path fill="#000000" fill-opacity="0.0" d="m13.247494 153.71614l113.41733 0" fill-rule="nonzero"></path><path stroke="#efefef" stroke-width="1.0" stroke-linejoin="round" stroke-linecap="butt" stroke-dasharray="1.0,3.0" d="m13.247494 153.71614l113.41733 0" fill-rule="nonzero"></path><path fill="#000000" fill-opacity="0.0" d="m13.588412 140.71603l113.41733 0" fill-rule="nonzero"></path><path stroke="#efefef" stroke-width="1.0" stroke-linejoin="round" stroke-linecap="butt" stroke-dasharray="1.0,3.0" d="m13.588412 140.71603l113.41733 0" fill-rule="nonzero"></path><path fill="#000000" fill-opacity="0.0" d="m13.3251705 165.25298l113.41732 0" fill-rule="nonzero"></path><path stroke="#efefef" stroke-width="1.0" stroke-linejoin="round" stroke-linecap="butt" stroke-dasharray="1.0,3.0" d="m13.3251705 165.25298l113.41732 0" fill-rule="nonzero"></path><path fill="#000000" fill-opacity="0.0" d="m12.984252 178.25307l113.41732 0" fill-rule="nonzero"></path><path stroke="#efefef" stroke-width="1.0" stroke-linejoin="round" stroke-linecap="butt" stroke-dasharray="1.0,3.0" d="m12.984252 178.25307l113.41732 0" fill-rule="nonzero"></path><path fill="#000000" fill-opacity="0.0" d="m14.192573 193.09177l113.41732 0" fill-rule="nonzero"></path><path stroke="#efefef" stroke-width="1.0" stroke-linejoin="round" stroke-linecap="butt" stroke-dasharray="1.0,3.0" d="m14.192573 193.09177l113.41732 0" fill-rule="nonzero"></path><path fill="#000000" fill-opacity="0.0" d="m13.851653 206.09186l113.41732 0" fill-rule="nonzero"></path><path stroke="#efefef" stroke-width="1.0" stroke-linejoin="round" stroke-linecap="butt" stroke-dasharray="1.0,3.0" d="m13.851653 206.09186l113.41732 0" fill-rule="nonzero"></path><path fill="#000000" fill-opacity="0.0" d="m25.501312 29.0l0 190.01575" fill-rule="nonzero"></path><path stroke="#efefef" stroke-width="1.0" stroke-linejoin="round" stroke-linecap="butt" stroke-dasharray="1.0,3.0" d="m25.501312 29.0l0 190.01575" fill-rule="nonzero"></path><path fill="#000000" fill-opacity="0.0" d="m41.501312 28.5l0 190.01575" fill-rule="nonzero"></path><path stroke="#efefef" stroke-width="1.0" stroke-linejoin="round" stroke-linecap="butt" stroke-dasharray="1.0,3.0" d="m41.501312 28.5l0 190.01575" fill-rule="nonzero"></path></g></svg>

