<?xml version="1.0" standalone="yes"?>

<svg version="1.1" viewBox="0.0 0.0 138.0 251.0" fill="none" stroke="none" stroke-linecap="square" stroke-miterlimit="10" xmlns="http://www.w3.org/2000/svg" xmlns:xlink="http://www.w3.org/1999/xlink"><clipPath id="p.0"><path d="m0 0l138.0 0l0 251.0l-138.0 0l0 -251.0z" clip-rule="nonzero"></path></clipPath><g clip-path="url(#p.0)"><path fill="#000000" fill-opacity="0.0" d="m0 0l138.0 0l0 251.0l-138.0 0z" fill-rule="nonzero"></path><path fill="#cccccc" d="m3736.2627 785.55396l0 0c0 -48.312134 39.16455 -87.47681 87.47681 -87.47681l533.55005 0c23.200684 0 45.450684 9.216248 61.85547 25.621338c16.405273 16.40509 25.621582 38.65515 25.621582 61.85547l0 349.89673c0 48.312134 -39.16455 87.47681 -87.47705 87.47681l-533.55005 0c-48.312256 0 -87.47681 -39.164673 -87.47681 -87.47681z" fill-rule="nonzero"></path><path fill="#000000" fill-opacity="0.0" d="m4000.6843 719.57135l193.48022 0" fill-rule="nonzero"></path><path stroke="#efefef" stroke-width="4.0" stroke-linejoin="round" stroke-linecap="butt" d="m4000.6843 719.57135l193.48022 0" fill-rule="nonzero"></path><path fill="#ffffff" d="m4334.855 722.86035c0 -2.2178345 5.2177734 -4.015747 11.653809 -4.015747l0 0c6.436035 0 11.65332 1.7979126 11.65332 4.015747l0 0c0 2.2178345 -5.217285 4.015747 -11.65332 4.015747l0 0c-6.436035 0 -11.653809 -1.7979126 -11.653809 -4.015747z" fill-rule="nonzero"></path><path stroke="#ffffff" stroke-width="2.0" stroke-linejoin="round" stroke-linecap="butt" d="m4334.855 722.86035c0 -2.2178345 5.2177734 -4.015747 11.653809 -4.015747l0 0c6.436035 0 11.65332 1.7979126 11.65332 4.015747l0 0c0 2.2178345 -5.217285 4.015747 -11.65332 4.015747l0 0c-6.436035 0 -11.653809 -1.7979126 -11.653809 -4.015747z" fill-rule="nonzero"></path><path fill="#434343" d="m3767.9265 744.4816l647.9055 0l0 411.84247l-647.9055 0z" fill-rule="nonzero"></path><path fill="#ffffff" d="m4033.019 1188.463l0 0c0 -10.828247 22.985107 -19.606323 51.338623 -19.606323l0 0c28.35376 0 51.338623 8.778076 51.338623 19.606323l0 0c0 10.828247 -22.984863 19.606323 -51.338623 19.606323l0 0c-28.353516 0 -51.338623 -8.778076 -51.338623 -19.606323z" fill-rule="nonzero"></path><path fill="#4a86e8" d="m3776.6975 898.4668l630.4885 0l0 67.55908l-630.4885 0z" fill-rule="nonzero"></path><path fill="#000000" fill-opacity="0.0" d="m3821.3296 913.75604l220.5669 0" fill-rule="nonzero"></path><path stroke="#f3f3f3" stroke-width="4.0" stroke-linejoin="round" stroke-linecap="butt" d="m3821.3296 913.75604l220.5669 0" fill-rule="nonzero"></path><path fill="#000000" fill-opacity="0.0" d="m3821.3164 932.25757l504.66162 0" fill-rule="nonzero"></path><path stroke="#f3f3f3" stroke-width="4.0" stroke-linejoin="round" stroke-linecap="butt" d="m3821.3164 932.25757l504.66162 0" fill-rule="nonzero"></path><path fill="#000000" fill-opacity="0.0" d="m3821.3164 949.9973l504.66162 0" fill-rule="nonzero"></path><path stroke="#f3f3f3" stroke-width="4.0" stroke-linejoin="round" stroke-linecap="butt" d="m3821.3164 949.9973l504.66162 0" fill-rule="nonzero"></path><path fill="#efefef" d="m3776.6975 823.34265l630.4885 0l0 67.55902l-630.4885 0z" fill-rule="nonzero"></path><path fill="#000000" fill-opacity="0.0" d="m3820.9229 839.01276l220.56714 0" fill-rule="nonzero"></path><path stroke="#b7b7b7" stroke-width="4.0" stroke-linejoin="round" stroke-linecap="butt" d="m3820.9229 839.01276l220.56714 0" fill-rule="nonzero"></path><path fill="#000000" fill-opacity="0.0" d="m3820.91 857.5143l263.71655 0" fill-rule="nonzero"></path><path stroke="#b7b7b7" stroke-width="4.0" stroke-linejoin="round" stroke-linecap="butt" d="m3820.91 857.5143l263.71655 0" fill-rule="nonzero"></path><path fill="#000000" fill-opacity="0.0" d="m3820.91 875.254l504.66138 0" fill-rule="nonzero"></path><path stroke="#b7b7b7" stroke-width="4.0" stroke-linejoin="round" stroke-linecap="butt" d="m3820.91 875.254l504.66138 0" fill-rule="nonzero"></path><path fill="#000000" fill-opacity="0.0" d="m4104.9907 839.01276l220.5669 0" fill-rule="nonzero"></path><path stroke="#b7b7b7" stroke-width="4.0" stroke-linejoin="round" stroke-linecap="butt" d="m4104.9907 839.01276l220.5669 0" fill-rule="nonzero"></path><path fill="#4a86e8" d="m3514.7358 918.6504l208.48828 0l0 -13.629944l27.259766 27.259827l-27.259766 27.259827l0 -13.629883l-208.48828 0z" fill-rule="nonzero"></path><path fill="#efefef" d="m3775.2942 748.21844l630.48804 0l0 67.55908l-630.48804 0z" fill-rule="nonzero"></path><path fill="#000000" fill-opacity="0.0" d="m3819.5195 763.88855l220.5669 0" fill-rule="nonzero"></path><path stroke="#b7b7b7" stroke-width="4.0" stroke-linejoin="round" stroke-linecap="butt" d="m3819.5195 763.88855l220.5669 0" fill-rule="nonzero"></path><path fill="#000000" fill-opacity="0.0" d="m3819.5066 782.3901l263.71655 0" fill-rule="nonzero"></path><path stroke="#b7b7b7" stroke-width="4.0" stroke-linejoin="round" stroke-linecap="butt" d="m3819.5066 782.3901l263.71655 0" fill-rule="nonzero"></path><path fill="#000000" fill-opacity="0.0" d="m3819.5066 800.1299l504.66138 0" fill-rule="nonzero"></path><path stroke="#b7b7b7" stroke-width="4.0" stroke-linejoin="round" stroke-linecap="butt" d="m3819.5066 800.1299l504.66138 0" fill-rule="nonzero"></path><path fill="#000000" fill-opacity="0.0" d="m4103.5874 763.88855l220.5669 0" fill-rule="nonzero"></path><path stroke="#b7b7b7" stroke-width="4.0" stroke-linejoin="round" stroke-linecap="butt" d="m4103.5874 763.88855l220.5669 0" fill-rule="nonzero"></path><path fill="#efefef" d="m3776.6975 973.59094l630.4885 0l0 67.55908l-630.4885 0z" fill-rule="nonzero"></path><path fill="#000000" fill-opacity="0.0" d="m3820.91 1007.76263l263.71655 0" fill-rule="nonzero"></path><path stroke="#b7b7b7" stroke-width="4.0" stroke-linejoin="round" stroke-linecap="butt" d="m3820.91 1007.76263l263.71655 0" fill-rule="nonzero"></path><path fill="#000000" fill-opacity="0.0" d="m4114.2764 986.6221l220.5669 0" fill-rule="nonzero"></path><path stroke="#b7b7b7" stroke-width="4.0" stroke-linejoin="round" stroke-linecap="butt" d="m4114.2764 986.6221l220.5669 0" fill-rule="nonzero"></path><path fill="#000000" fill-opacity="0.0" d="m3820.91 1025.5024l504.66138 0" fill-rule="nonzero"></path><path stroke="#b7b7b7" stroke-width="4.0" stroke-linejoin="round" stroke-linecap="butt" d="m3820.91 1025.5024l504.66138 0" fill-rule="nonzero"></path><path fill="#efefef" d="m3776.6975 1048.7139l630.4885 0l0 67.55908l-630.4885 0z" fill-rule="nonzero"></path><path fill="#000000" fill-opacity="0.0" d="m3820.9229 1064.384l220.56714 0" fill-rule="nonzero"></path><path stroke="#b7b7b7" stroke-width="4.0" stroke-linejoin="round" stroke-linecap="butt" d="m3820.9229 1064.384l220.56714 0" fill-rule="nonzero"></path><path fill="#000000" fill-opacity="0.0" d="m3965.5864 1082.506l263.7168 0" fill-rule="nonzero"></path><path stroke="#b7b7b7" stroke-width="4.0" stroke-linejoin="round" stroke-linecap="butt" d="m3965.5864 1082.506l263.7168 0" fill-rule="nonzero"></path><path fill="#000000" fill-opacity="0.0" d="m4104.9907 1064.384l220.5669 0" fill-rule="nonzero"></path><path stroke="#b7b7b7" stroke-width="4.0" stroke-linejoin="round" stroke-linecap="butt" d="m4104.9907 1064.384l220.5669 0" fill-rule="nonzero"></path><path fill="#000000" fill-opacity="0.0" d="m3820.91 1100.6252l266.29907 0" fill-rule="nonzero"></path><path stroke="#b7b7b7" stroke-width="4.0" stroke-linejoin="round" stroke-linecap="butt" d="m3820.91 1100.6252l266.29907 0" fill-rule="nonzero"></path><path fill="#efefef" d="m3776.6975 1123.8392l630.4885 0l0 32.472412l-630.4885 0z" fill-rule="nonzero"></path><path fill="#cccccc" d="m3823.9395 820.0778l0 0c0 -48.312134 39.16455 -87.47687 87.47681 -87.47687l533.55005 0c23.200684 0 45.450684 9.216309 61.85547 25.621399c16.405273 16.40509 25.621582 38.65515 25.621582 61.85547l0 349.8968c0 48.31201 -39.16455 87.47681 -87.47705 87.47681l-533.55005 0c-48.312256 0 -87.47681 -39.164795 -87.47681 -87.47681z" fill-rule="nonzero"></path><path fill="#000000" fill-opacity="0.0" d="m4088.361 754.0952l193.48022 0" fill-rule="nonzero"></path><path stroke="#efefef" stroke-width="4.0" stroke-linejoin="round" stroke-linecap="butt" d="m4088.361 754.0952l193.48022 0" fill-rule="nonzero"></path><path fill="#ffffff" d="m4422.5317 757.3842c0 -2.2178345 5.2177734 -4.015747 11.653809 -4.015747l0 0c6.436035 0 11.65332 1.7979126 11.65332 4.015747l0 0c0 2.2178345 -5.217285 4.015747 -11.65332 4.015747l0 0c-6.436035 0 -11.653809 -1.7979126 -11.653809 -4.015747z" fill-rule="nonzero"></path><path stroke="#ffffff" stroke-width="2.0" stroke-linejoin="round" stroke-linecap="butt" d="m4422.5317 757.3842c0 -2.2178345 5.2177734 -4.015747 11.653809 -4.015747l0 0c6.436035 0 11.65332 1.7979126 11.65332 4.015747l0 0c0 2.2178345 -5.217285 4.015747 -11.65332 4.015747l0 0c-6.436035 0 -11.653809 -1.7979126 -11.653809 -4.015747z" fill-rule="nonzero"></path><path fill="#434343" d="m3855.6033 779.0055l647.9055 0l0 411.84253l-647.9055 0z" fill-rule="nonzero"></path><path fill="#ffffff" d="m4120.696 1222.9868l0 0c0 -10.828247 22.985352 -19.606323 51.338867 -19.606323l0 0c28.353516 0 51.33838 8.778076 51.33838 19.606323l0 0c0 10.828247 -22.984863 19.606323 -51.33838 19.606323l0 0c-28.353516 0 -51.338867 -8.778076 -51.338867 -19.606323z" fill-rule="nonzero"></path><path fill="#4a86e8" d="m3864.3743 932.99066l630.4885 0l0 67.55902l-630.4885 0z" fill-rule="nonzero"></path><path fill="#000000" fill-opacity="0.0" d="m3909.0063 948.2799l220.5669 0" fill-rule="nonzero"></path><path stroke="#f3f3f3" stroke-width="4.0" stroke-linejoin="round" stroke-linecap="butt" d="m3909.0063 948.2799l220.5669 0" fill-rule="nonzero"></path><path fill="#000000" fill-opacity="0.0" d="m3908.9932 966.78143l504.66162 0" fill-rule="nonzero"></path><path stroke="#f3f3f3" stroke-width="4.0" stroke-linejoin="round" stroke-linecap="butt" d="m3908.9932 966.78143l504.66162 0" fill-rule="nonzero"></path><path fill="#000000" fill-opacity="0.0" d="m3908.9932 984.5212l504.66162 0" fill-rule="nonzero"></path><path stroke="#f3f3f3" stroke-width="4.0" stroke-linejoin="round" stroke-linecap="butt" d="m3908.9932 984.5212l504.66162 0" fill-rule="nonzero"></path><path fill="#efefef" d="m3864.3743 857.86646l630.4885 0l0 67.55908l-630.4885 0z" fill-rule="nonzero"></path><path fill="#000000" fill-opacity="0.0" d="m3908.5996 873.5366l220.5669 0" fill-rule="nonzero"></path><path stroke="#b7b7b7" stroke-width="4.0" stroke-linejoin="round" stroke-linecap="butt" d="m3908.5996 873.5366l220.5669 0" fill-rule="nonzero"></path><path fill="#000000" fill-opacity="0.0" d="m3908.5867 892.0381l263.71655 0" fill-rule="nonzero"></path><path stroke="#b7b7b7" stroke-width="4.0" stroke-linejoin="round" stroke-linecap="butt" d="m3908.5867 892.0381l263.71655 0" fill-rule="nonzero"></path><path fill="#000000" fill-opacity="0.0" d="m3908.5867 909.7779l504.66138 0" fill-rule="nonzero"></path><path stroke="#b7b7b7" stroke-width="4.0" stroke-linejoin="round" stroke-linecap="butt" d="m3908.5867 909.7779l504.66138 0" fill-rule="nonzero"></path><path fill="#000000" fill-opacity="0.0" d="m4192.6675 873.5366l220.5669 0" fill-rule="nonzero"></path><path stroke="#b7b7b7" stroke-width="4.0" stroke-linejoin="round" stroke-linecap="butt" d="m4192.6675 873.5366l220.5669 0" fill-rule="nonzero"></path><path fill="#4a86e8" d="m3602.4126 953.1742l208.48828 0l0 -13.629883l27.259766 27.259827l-27.259766 27.259827l0 -13.629944l-208.48828 0z" fill-rule="nonzero"></path><path fill="#efefef" d="m3862.971 782.7423l630.48804 0l0 67.55902l-630.48804 0z" fill-rule="nonzero"></path><path fill="#000000" fill-opacity="0.0" d="m3907.1963 798.4124l220.5669 0" fill-rule="nonzero"></path><path stroke="#b7b7b7" stroke-width="4.0" stroke-linejoin="round" stroke-linecap="butt" d="m3907.1963 798.4124l220.5669 0" fill-rule="nonzero"></path><path fill="#000000" fill-opacity="0.0" d="m3907.1833 816.91394l263.71655 0" fill-rule="nonzero"></path><path stroke="#b7b7b7" stroke-width="4.0" stroke-linejoin="round" stroke-linecap="butt" d="m3907.1833 816.91394l263.71655 0" fill-rule="nonzero"></path><path fill="#000000" fill-opacity="0.0" d="m3907.1833 834.6537l504.66138 0" fill-rule="nonzero"></path><path stroke="#b7b7b7" stroke-width="4.0" stroke-linejoin="round" stroke-linecap="butt" d="m3907.1833 834.6537l504.66138 0" fill-rule="nonzero"></path><path fill="#000000" fill-opacity="0.0" d="m4191.264 798.4124l220.5669 0" fill-rule="nonzero"></path><path stroke="#b7b7b7" stroke-width="4.0" stroke-linejoin="round" stroke-linecap="butt" d="m4191.264 798.4124l220.5669 0" fill-rule="nonzero"></path><path fill="#efefef" d="m3864.3743 1008.1148l630.4885 0l0 67.55902l-630.4885 0z" fill-rule="nonzero"></path><path fill="#000000" fill-opacity="0.0" d="m3908.5867 1042.2865l263.71655 0" fill-rule="nonzero"></path><path stroke="#b7b7b7" stroke-width="4.0" stroke-linejoin="round" stroke-linecap="butt" d="m3908.5867 1042.2865l263.71655 0" fill-rule="nonzero"></path><path fill="#000000" fill-opacity="0.0" d="m4201.953 1021.14594l220.5669 0" fill-rule="nonzero"></path><path stroke="#b7b7b7" stroke-width="4.0" stroke-linejoin="round" stroke-linecap="butt" d="m4201.953 1021.14594l220.5669 0" fill-rule="nonzero"></path><path fill="#000000" fill-opacity="0.0" d="m3908.5867 1060.0262l504.66138 0" fill-rule="nonzero"></path><path stroke="#b7b7b7" stroke-width="4.0" stroke-linejoin="round" stroke-linecap="butt" d="m3908.5867 1060.0262l504.66138 0" fill-rule="nonzero"></path><path fill="#efefef" d="m3864.3743 1083.2377l630.4885 0l0 67.55908l-630.4885 0z" fill-rule="nonzero"></path><path fill="#000000" fill-opacity="0.0" d="m3908.5996 1098.9078l220.5669 0" fill-rule="nonzero"></path><path stroke="#b7b7b7" stroke-width="4.0" stroke-linejoin="round" stroke-linecap="butt" d="m3908.5996 1098.9078l220.5669 0" fill-rule="nonzero"></path><path fill="#000000" fill-opacity="0.0" d="m4053.2632 1117.0298l263.7168 0" fill-rule="nonzero"></path><path stroke="#b7b7b7" stroke-width="4.0" stroke-linejoin="round" stroke-linecap="butt" d="m4053.2632 1117.0298l263.7168 0" fill-rule="nonzero"></path><path fill="#000000" fill-opacity="0.0" d="m4192.6675 1098.9078l220.5669 0" fill-rule="nonzero"></path><path stroke="#b7b7b7" stroke-width="4.0" stroke-linejoin="round" stroke-linecap="butt" d="m4192.6675 1098.9078l220.5669 0" fill-rule="nonzero"></path><path fill="#000000" fill-opacity="0.0" d="m3908.5867 1135.1492l266.29907 0" fill-rule="nonzero"></path><path stroke="#b7b7b7" stroke-width="4.0" stroke-linejoin="round" stroke-linecap="butt" d="m3908.5867 1135.1492l266.29907 0" fill-rule="nonzero"></path><path fill="#efefef" d="m3864.3743 1158.363l630.4885 0l0 32.472534l-630.4885 0z" fill-rule="nonzero"></path><path fill="#cccccc" d="m4.748916 26.5503l0 0c0 -11.901178 9.64781 -21.548988 21.548986 -21.548988l86.19336 0l0 0c5.715149 0 11.19622 2.2703333 15.237442 6.311552c4.0412216 4.0412197 6.3115463 9.522289 6.3115463 15.237436l0 200.14612c0 11.901169 -9.647812 21.54898 -21.548988 21.54898l-86.19336 0c-11.901176 0 -21.548986 -9.647812 -21.548986 -21.54898z" fill-rule="nonzero"></path><path fill="#000000" fill-opacity="0.0" d="m53.002823 14.962762l35.307083 0" fill-rule="nonzero"></path><path stroke="#efefef" stroke-width="4.0" stroke-linejoin="round" stroke-linecap="butt" d="m53.002823 14.962762l35.307083 0" fill-rule="nonzero"></path><path fill="#ffffff" d="m113.98518 16.484222l0 0c0 -1.0262928 0.95183563 -1.8582678 2.1259842 -1.8582678l0 0c1.1741486 0 2.1259842 0.831975 2.1259842 1.8582678l0 0c0 1.0262928 -0.95183563 1.8582668 -2.1259842 1.8582668l0 0c-1.1741486 0 -2.1259842 -0.831974 -2.1259842 -1.8582668z" fill-rule="nonzero"></path><path stroke="#ffffff" stroke-width="2.0" stroke-linejoin="round" stroke-linecap="butt" d="m113.98518 16.484222l0 0c0 -1.0262928 0.95183563 -1.8582678 2.1259842 -1.8582678l0 0c1.1741486 0 2.1259842 0.831975 2.1259842 1.8582678l0 0c0 1.0262928 -0.95183563 1.8582668 -2.1259842 1.8582668l0 0c-1.1741486 0 -2.1259842 -0.831974 -2.1259842 -1.8582668z" fill-rule="nonzero"></path><path fill="#434343" d="m10.52721 26.507372l118.23622 0l0 190.86615l-118.23622 0z" fill-rule="nonzero"></path><path fill="#ffffff" d="m58.90356 232.26968l0 0c0 -5.018402 4.1951294 -9.086609 9.370083 -9.086609l0 0c2.4850998 0 4.868416 0.9573364 6.625641 2.6614075c1.7572327 1.704071 2.7444382 4.015274 2.7444382 6.4252014l0 0c0 5.018402 -4.1951294 9.086609 -9.370079 9.086609l0 0c-5.1749535 0 -9.370083 -4.068207 -9.370083 -9.086609z" fill-rule="nonzero"></path><path fill="#999999" d="m12.127834 97.87146l115.055115 0l0 31.307083l-115.055115 0z" fill-rule="nonzero"></path><path fill="#000000" fill-opacity="0.0" d="m20.272646 104.95723l40.25197 0" fill-rule="nonzero"></path><path stroke="#f3f3f3" stroke-width="4.0" stroke-linejoin="round" stroke-linecap="butt" d="m20.272646 104.95723l40.25197 0" fill-rule="nonzero"></path><path fill="#000000" fill-opacity="0.0" d="m20.196762 113.20101l92.09449 0" fill-rule="nonzero"></path><path stroke="#f3f3f3" stroke-width="4.0" stroke-linejoin="round" stroke-linecap="butt" d="m20.196762 113.20101l92.09449 0" fill-rule="nonzero"></path><path fill="#efefef" d="m12.127834 63.05533l115.055115 0l0 31.307083l-115.055115 0z" fill-rule="nonzero"></path><path fill="#000000" fill-opacity="0.0" d="m20.19845 70.31761l40.25197 0" fill-rule="nonzero"></path><path stroke="#b7b7b7" stroke-width="4.0" stroke-linejoin="round" stroke-linecap="butt" d="m20.19845 70.31761l40.25197 0" fill-rule="nonzero"></path><path fill="#000000" fill-opacity="0.0" d="m20.196056 79.22409l48.125988 0" fill-rule="nonzero"></path><path stroke="#b7b7b7" stroke-width="4.0" stroke-linejoin="round" stroke-linecap="butt" d="m20.196056 79.22409l48.125988 0" fill-rule="nonzero"></path><path fill="#000000" fill-opacity="0.0" d="m20.196056 87.113556l92.09448 0" fill-rule="nonzero"></path><path stroke="#b7b7b7" stroke-width="4.0" stroke-linejoin="round" stroke-linecap="butt" d="m20.196056 87.113556l92.09448 0" fill-rule="nonzero"></path><path fill="#000000" fill-opacity="0.0" d="m72.03756 70.31761l40.25197 0" fill-rule="nonzero"></path><path stroke="#b7b7b7" stroke-width="4.0" stroke-linejoin="round" stroke-linecap="butt" d="m72.03756 70.31761l40.25197 0" fill-rule="nonzero"></path><path fill="#efefef" d="m12.127834 132.68759l115.055115 0l0 31.307083l-115.055115 0z" fill-rule="nonzero"></path><path fill="#000000" fill-opacity="0.0" d="m20.196056 145.99028l48.125988 0" fill-rule="nonzero"></path><path stroke="#b7b7b7" stroke-width="4.0" stroke-linejoin="round" stroke-linecap="butt" d="m20.196056 145.99028l48.125988 0" fill-rule="nonzero"></path><path fill="#000000" fill-opacity="0.0" d="m73.7321 138.72684l40.25197 0" fill-rule="nonzero"></path><path stroke="#b7b7b7" stroke-width="4.0" stroke-linejoin="round" stroke-linecap="butt" d="m73.7321 138.72684l40.25197 0" fill-rule="nonzero"></path><path fill="#000000" fill-opacity="0.0" d="m20.196056 156.74583l92.09448 0" fill-rule="nonzero"></path><path stroke="#b7b7b7" stroke-width="4.0" stroke-linejoin="round" stroke-linecap="butt" d="m20.196056 156.74583l92.09448 0" fill-rule="nonzero"></path><path fill="#efefef" d="m12.127834 167.50313l115.055115 0l0 31.307083l-115.055115 0z" fill-rule="nonzero"></path><path fill="#000000" fill-opacity="0.0" d="m20.19845 174.76541l40.25197 0" fill-rule="nonzero"></path><path stroke="#b7b7b7" stroke-width="4.0" stroke-linejoin="round" stroke-linecap="butt" d="m20.19845 174.76541l40.25197 0" fill-rule="nonzero"></path><path fill="#000000" fill-opacity="0.0" d="m53.002087 183.1574l48.12598 0" fill-rule="nonzero"></path><path stroke="#b7b7b7" stroke-width="4.0" stroke-linejoin="round" stroke-linecap="butt" d="m53.002087 183.1574l48.12598 0" fill-rule="nonzero"></path><path fill="#000000" fill-opacity="0.0" d="m72.03756 174.76541l40.25197 0" fill-rule="nonzero"></path><path stroke="#b7b7b7" stroke-width="4.0" stroke-linejoin="round" stroke-linecap="butt" d="m72.03756 174.76541l40.25197 0" fill-rule="nonzero"></path><path fill="#000000" fill-opacity="0.0" d="m19.959837 192.06267l48.59842 0" fill-rule="nonzero"></path><path stroke="#b7b7b7" stroke-width="4.0" stroke-linejoin="round" stroke-linecap="butt" d="m19.959837 192.06267l48.59842 0" fill-rule="nonzero"></path><path fill="#efefef" d="m12.127834 202.31982l115.055115 0l0 15.055115l-115.055115 0z" fill-rule="nonzero"></path><path fill="#000000" fill-opacity="0.0" d="m19.941938 121.91524l40.25197 0" fill-rule="nonzero"></path><path stroke="#f3f3f3" stroke-width="4.0" stroke-linejoin="round" stroke-linecap="butt" d="m19.941938 121.91524l40.25197 0" fill-rule="nonzero"></path><path fill="#efefef" d="m10.414699 26.654856l118.77166 0l0 31.307085l-118.77166 0z" fill-rule="nonzero"></path><path fill="#ffffff" d="m14.994751 35.439705l0 0c0 -1.9511566 1.5817242 -3.5328808 3.5328789 -3.5328808l102.16258 0c0.9369812 0 1.8355789 0.37221336 2.4981232 1.0347576c0.66254425 0.66254044 1.0347595 1.561142 1.0347595 2.4981232l0 14.131092c0 1.9511528 -1.5817261 3.5328789 -3.5328827 3.5328789l-102.16258 0l0 0c-1.9511547 0 -3.5328789 -1.5817261 -3.5328789 -3.5328789z" fill-rule="nonzero"></path><path stroke="#d9d9d9" stroke-width="1.0" stroke-linejoin="round" stroke-linecap="butt" d="m14.994751 35.439705l0 0c0 -1.9511566 1.5817242 -3.5328808 3.5328789 -3.5328808l102.16258 0c0.9369812 0 1.8355789 0.37221336 2.4981232 1.0347576c0.66254425 0.66254044 1.0347595 1.561142 1.0347595 2.4981232l0 14.131092c0 1.9511528 -1.5817261 3.5328789 -3.5328827 3.5328789l-102.16258 0l0 0c-1.9511547 0 -3.5328789 -1.5817261 -3.5328789 -3.5328789z" fill-rule="nonzero"></path><path fill="#b7b7b7" d="m25.748245 44.67775l1.4375 -0.125q0.09375 0.859375 0.46875 1.421875q0.375 0.546875 1.15625 0.890625q0.78125 0.328125 1.75 0.328125q0.875 0 1.53125 -0.25q0.671875 -0.265625 0.984375 -0.703125q0.328125 -0.453125 0.328125 -0.984375q0 -0.546875 -0.3125 -0.9375q-0.3125 -0.40625 -1.03125 -0.6875q-0.453125 -0.171875 -2.03125 -0.546875q-1.578125 -0.390625 -2.21875 -0.71875q-0.8125 -0.4375 -1.21875 -1.0625q-0.40625 -0.640625 -0.40625 -1.4375q0 -0.859375 0.484375 -1.609375q0.5 -0.765625 1.4375 -1.15625q0.953125 -0.390625 2.109375 -0.390625q1.28125 0 2.25 0.421875q0.96875 0.40625 1.484375 1.203125q0.53125 0.796875 0.578125 1.796875l-1.453125 0.109375q-0.125 -1.078125 -0.796875 -1.625q-0.671875 -0.5625 -2.0 -0.5625q-1.375 0 -2.0 0.5q-0.625 0.5 -0.625 1.21875q0 0.609375 0.4375 1.015625q0.4375 0.390625 2.28125 0.8125q1.859375 0.421875 2.546875 0.734375q1.0 0.453125 1.46875 1.171875q0.484375 0.703125 0.484375 1.625q0 0.90625 -0.53125 1.71875q-0.515625 0.8125 -1.5 1.265625q-0.984375 0.453125 -2.203125 0.453125q-1.5625 0 -2.609375 -0.453125q-1.046875 -0.46875 -1.65625 -1.375q-0.59375 -0.90625 -0.625 -2.0625zm16.6875 1.015625l1.453125 0.171875q-0.34375 1.28125 -1.28125 1.984375q-0.921875 0.703125 -2.359375 0.703125q-1.828125 0 -2.890625 -1.125q-1.0625 -1.125 -1.0625 -3.140625q0 -2.09375 1.078125 -3.25q1.078125 -1.15625 2.796875 -1.15625q1.65625 0 2.703125 1.140625q1.0625 1.125 1.0625 3.171875q0 0.125 0 0.375l-6.1875 0q0.078125 1.375 0.765625 2.109375q0.703125 0.71875 1.734375 0.71875q0.78125 0 1.328125 -0.40625q0.546875 -0.40625 0.859375 -1.296875zm-4.609375 -2.28125l4.625 0q-0.09375 -1.046875 -0.53125 -1.5625q-0.671875 -0.8125 -1.734375 -0.8125q-0.96875 0 -1.640625 0.65625q-0.65625 0.640625 -0.71875 1.71875zm13.2421875 3.921875q-0.78125 0.671875 -1.5 0.953125q-0.71875 0.265625 -1.546875 0.265625q-1.375 0 -2.109375 -0.671875q-0.734375 -0.671875 -0.734375 -1.703125q0 -0.609375 0.28125 -1.109375q0.28125 -0.515625 0.71875 -0.8125q0.453125 -0.3125 1.015625 -0.46875q0.421875 -0.109375 1.25 -0.203125q1.703125 -0.203125 2.515625 -0.484375q0 -0.296875 0 -0.375q0 -0.859375 -0.390625 -1.203125q-0.546875 -0.484375 -1.609375 -0.484375q-0.984375 0 -1.46875 0.359375q-0.46875 0.34375 -0.6875 1.21875l-1.375 -0.1875q0.1875 -0.875 0.609375 -1.421875q0.4375 -0.546875 1.25 -0.828125q0.8125 -0.296875 1.875 -0.296875q1.0625 0 1.71875 0.25q0.671875 0.25 0.984375 0.625q0.3125 0.375 0.4375 0.953125q0.078125 0.359375 0.078125 1.296875l0 1.875q0 1.96875 0.078125 2.484375q0.09375 0.515625 0.359375 1.0l-1.46875 0q-0.21875 -0.4375 -0.28125 -1.03125zm-0.109375 -3.140625q-0.765625 0.3125 -2.296875 0.53125q-0.875 0.125 -1.234375 0.28125q-0.359375 0.15625 -0.5625 0.46875q-0.1875 0.296875 -0.1875 0.65625q0 0.5625 0.421875 0.9375q0.4375 0.375 1.25 0.375q0.8125 0 1.4375 -0.34375q0.640625 -0.359375 0.9375 -0.984375q0.234375 -0.46875 0.234375 -1.40625l0 -0.515625zm3.5859375 4.171875l0 -8.296875l1.265625 0l0 1.25q0.484375 -0.875 0.890625 -1.15625q0.40625 -0.28125 0.90625 -0.28125q0.703125 0 1.4375 0.453125l-0.484375 1.296875q-0.515625 -0.296875 -1.03125 -0.296875q-0.453125 0 -0.828125 0.28125q-0.359375 0.265625 -0.515625 0.765625q-0.234375 0.75 -0.234375 1.640625l0 4.34375l-1.40625 0zm10.75 -3.046875l1.390625 0.1875q-0.234375 1.421875 -1.171875 2.234375q-0.921875 0.8125 -2.28125 0.8125q-1.703125 0 -2.75 -1.109375q-1.03125 -1.125 -1.03125 -3.203125q0 -1.34375 0.4375 -2.34375q0.453125 -1.015625 1.359375 -1.515625q0.921875 -0.5 1.984375 -0.5q1.359375 0 2.21875 0.6875q0.859375 0.671875 1.09375 1.9375l-1.359375 0.203125q-0.203125 -0.828125 -0.703125 -1.25q-0.484375 -0.421875 -1.1875 -0.421875q-1.0625 0 -1.734375 0.765625q-0.65625 0.75 -0.65625 2.40625q0 1.671875 0.640625 2.4375q0.640625 0.75 1.671875 0.75q0.828125 0 1.375 -0.5q0.5625 -0.515625 0.703125 -1.578125zm2.59375 3.046875l0 -11.453125l1.40625 0l0 4.109375q0.984375 -1.140625 2.484375 -1.140625q0.921875 0 1.59375 0.359375q0.6875 0.359375 0.96875 1.0q0.296875 0.640625 0.296875 1.859375l0 5.265625l-1.40625 0l0 -5.265625q0 -1.046875 -0.453125 -1.53125q-0.453125 -0.484375 -1.296875 -0.484375q-0.625 0 -1.171875 0.328125q-0.546875 0.328125 -0.78125 0.890625q-0.234375 0.546875 -0.234375 1.515625l0 4.546875l-1.40625 0z" fill-rule="nonzero"></path></g></svg>

