<?xml version="1.0" encoding="utf-8"?>
<!-- Generator: Adobe Illustrator 14.0.0, SVG Export Plug-In . SVG Version: 6.00 Build 43363)  -->
<!DOCTYPE svg PUBLIC "-//W3C//DTD SVG 1.1//EN" "http://www.w3.org/Graphics/SVG/1.1/DTD/svg11.dtd">
<svg version="1.1" id="Layer_1" xmlns="http://www.w3.org/2000/svg" xmlns:xlink="http://www.w3.org/1999/xlink" x="0px" y="0px"
	 width="236.389px" height="236.39px" viewBox="137.722 61.863 236.389 236.39"
	 enable-background="new 137.722 61.863 236.389 236.39" xml:space="preserve">
<g>
	<g>
		<defs>
			<path id="SVGID_1_" d="M263.643,224.535l-7.726,0.01l-7.728-0.01c-2.089-0.003-3.087,0.009-5.03,0.82l-6.593,2.763
				c-6.441,2.698-5.444,3.022-3.759,6.795c4.599,10.294,8.935,13.097,23.11,10.259c14.174,2.838,18.509,0.035,23.108-10.259
				c1.686-3.771,2.683-4.097-3.76-6.795l-6.594-2.763c-1.855-0.777-2.852-0.821-4.761-0.821
				C263.824,224.534,263.734,224.534,263.643,224.535 M272.46,189.57c0.886-0.214,0.718-0.771,0.498-3.033
				c0.819,1.594,2.123,3.905,2.3,4.351c0.898,2.243-0.111,3.061-1.92,4.136l-13.425,7.983c-1.425,0.848-2.69,1.116-3.204,3.232
				l-0.792,3.279l-0.794-3.279c-0.512-2.116-1.778-2.384-3.203-3.232l-13.425-7.983c-1.809-1.075-2.82-1.893-1.92-4.136
				c0.178-0.446,1.479-2.757,2.3-4.351c-0.219,2.262-0.388,2.819,0.498,3.033l16.544,3.018L272.46,189.57z M255.917,121.809
				c-16.865-9.055-20.903-9.424-28.063-1.119l-9.336,10.827c-4.961,5.753-8.707,10.68-3.882,13.477l4.305,1.778l-0.014-0.046
				l22.853,7.859c3.57,1.228,3.645,2.859,2.85,4.972l-4.926,18.511l2.058-15.103c0.112-0.829,0.824-1.466-2.268-1.521l-11.006-0.195
				c-3.137-0.055-5.55-1.974-6.371-4.541l-2.543-7.959l-10.433,4.988c-3.524,1.684-4.767,4.271-2.981,7.915l8.346,17.028
				c1.339,2.73,3.385,4.004,6.736,3.182l7.586-3.68l-10.626,19.047c-2.57,4.608-3.047,5.727-0.697,10.763l4.854,10.404
				c1.988,4.545,2.079,7.057,7.183,5.957l15.101-3.256c5.184-1.121,9.515-2.256,11.274-5.223c1.757,2.967,6.089,4.102,11.272,5.223
				l15.102,3.256c5.102,1.1,5.193-1.412,7.184-5.957l4.854-10.404c2.35-5.036,1.873-6.155-0.699-10.763l-10.624-19.047l7.587,3.68
				c3.352,0.822,5.396-0.452,6.734-3.182l8.346-17.028c1.787-3.644,0.544-6.231-2.979-7.915l-10.435-4.988l-2.545,7.959
				c-0.819,2.567-3.229,4.486-6.37,4.541l-11.005,0.195c-3.093,0.055-2.381,0.692-2.269,1.521l2.058,15.103l-4.926-18.511
				c-0.795-2.113-0.72-3.744,2.853-4.972l22.852-7.859l-0.016,0.046l4.309-1.778c4.822-2.797,1.076-7.724-3.885-13.477
				l-9.336-10.827c-3.427-3.974-6.139-5.962-9.883-5.963C270.016,114.727,264.711,117.087,255.917,121.809 M239.809,74.112
				c5.255-0.79,10.632-1.202,16.108-1.202c5.474,0,10.851,0.412,16.106,1.202c-6.916,5.398-9.101,18.616,2.347,6.846
				c2.249-2.311,5.756-5.446,10.924-3.982c9.271,2.627,18.035,6.47,26.108,11.341c-34.006,21.036-12.854,11.996,3.311,8.133
				c3.926-0.938,7.986-0.296,10.174,1.492c5.416,4.427,12.383,11.516,18.057,19.326c-40.497,6.614-33.616,6.409-2.874,8.28
				c6.051,0.368,9.041,0.428,12.981,8.694c4.318,9.054,7.406,18.808,9.053,29.042c-45.671-17.574-43.525-18.651-4.813,10.252
				c3.037,2.267,6.537,5.211,5.951,14.104c-0.675,10.266-2.797,20.14-6.154,29.42c-47.195-74.269-25.71-40.345-8.99,5.197
				c1.313,3.576,2.992,9.118-1.776,16.499c-5.125,7.935-11.266,15.15-18.237,21.464c-9.379-76.99-10.558-75.57-8.444-3.718
				c0.212,7.214-1.642,12.123-7.969,15.964c-6.353,3.856-13.138,7.073-20.264,9.563c21.297-76.831,11.159-41.518-4.624-13.553
				c-3.699,6.555-9.067,16.832-17.202,18.727c-0.616-6.969-4.599-18.803-13.663-18.803c-9.067,0-13.048,11.834-13.664,18.803
				c-8.135-1.895-13.504-12.172-17.203-18.727c-15.785-27.965-25.92-63.278-4.623,13.553c-7.127-2.489-13.911-5.706-20.265-9.563
				c-6.326-3.841-8.18-8.75-7.968-15.964c2.114-71.853,0.934-73.272-8.445,3.718c-6.972-6.313-13.112-13.529-18.237-21.464
				c-4.768-7.381-3.09-12.923-1.777-16.499c16.72-45.542,38.204-79.466-8.99-5.197c-3.359-9.281-5.478-19.154-6.155-29.42
				c-0.586-8.893,2.914-11.837,5.952-14.104c38.715-28.903,40.859-27.826-4.813-10.252c1.647-10.234,4.735-19.988,9.053-29.042
				c3.943-8.266,6.931-8.326,12.984-8.694c30.741-1.871,37.622-1.666-2.876-8.28c5.673-7.81,12.639-14.899,18.056-19.326
				c2.189-1.788,6.248-2.43,10.174-1.492c16.163,3.863,37.316,12.903,3.311-8.133c8.072-4.871,16.835-8.714,26.108-11.341
				c5.168-1.464,8.676,1.671,10.924,3.982c3.332,3.427,5.51,4.735,6.751,4.736C247.236,85.694,244.711,77.939,239.809,74.112
				 M137.722,180.057c0,65.1,53.095,118.195,118.195,118.195c65.099,0,118.194-53.096,118.194-118.195
				S321.015,61.863,255.917,61.863C190.817,61.863,137.722,114.958,137.722,180.057"/>
		</defs>
		<clipPath id="SVGID_2_">
			<use xlink:href="#SVGID_1_"  overflow="visible"/>
		</clipPath>
		
			<radialGradient id="SVGID_3_" cx="-139.6606" cy="185.3999" r="1" gradientTransform="matrix(118.1946 0 0 118.1946 16763.0527 -21733.2285)" gradientUnits="userSpaceOnUse">
			<stop  offset="0" style="stop-color:#0089CF"/>
			<stop  offset="0.2091" style="stop-color:#0083CA"/>
			<stop  offset="0.5955" style="stop-color:#0073BD"/>
			<stop  offset="1" style="stop-color:#0061AF"/>
		</radialGradient>
		<rect x="137.722" y="61.863" clip-path="url(#SVGID_2_)" fill="url(#SVGID_3_)" width="236.389" height="236.39"/>
	</g>
</g>
</svg>
