<?xml version="1.0" encoding="utf-8"?>
<!-- Generator: Adobe Illustrator 14.0.0, SVG Export Plug-In . SVG Version: 6.00 Build 43363)  -->
<!DOCTYPE svg PUBLIC "-//W3C//DTD SVG 1.1//EN" "http://www.w3.org/Graphics/SVG/1.1/DTD/svg11.dtd">
<svg version="1.1" id="Layer_1" xmlns="http://www.w3.org/2000/svg" xmlns:xlink="http://www.w3.org/1999/xlink" x="0px" y="0px"
	 width="219.471px" height="295.023px" viewBox="126.28 9.403 219.471 295.023"
	 enable-background="new 126.28 9.403 219.471 295.023" xml:space="preserve">
<g>
	<g>
		<defs>
			<path id="SVGID_1_" d="M236.013,219.805l-0.438,0.006l-0.443,0.018l-0.432,0.025h-0.006l-0.436,0.037l-0.428,0.054l-0.426,0.054
				l-0.424,0.071l-0.428,0.084l-0.409,0.093h-0.006l-0.412,0.1l-0.408,0.113h-0.007l-0.396,0.122h-0.008l-0.396,0.126l-0.401,0.144
				l-0.384,0.151h-0.009l-0.385,0.158l-0.379,0.167h-0.006l-0.373,0.183h-0.008l-0.367,0.18l-0.373,0.194l-0.361,0.208l-0.354,0.213
				h-0.009l-0.348,0.219l-0.346,0.229l-0.337,0.232h-0.005l-0.331,0.247l-0.334,0.254l-0.319,0.259l-0.312,0.262l-0.31,0.274
				l-0.307,0.284l-0.289,0.294h-0.006l-0.291,0.292l-0.275,0.3h-0.008l-0.27,0.308h-0.006l-0.266,0.319l-0.252,0.319h-0.007
				l-0.248,0.33L222,227.061h-0.004l-0.236,0.345l-0.225,0.342h-0.007l-0.217,0.357h-0.007l-0.202,0.355l-0.207,0.361h-0.005
				l-0.195,0.366l-0.185,0.381l-0.169,0.374h-0.004l-0.166,0.379h-0.006l-0.158,0.392l-0.149,0.392h-0.005l-0.132,0.397
				l-0.134,0.398l-0.121,0.404l-0.107,0.415l-0.104,0.408h-0.006l-0.086,0.418h-0.006l-0.076,0.42l-0.074,0.424l-0.059,0.433
				l-0.051,0.428l-0.033,0.437h-0.008l-0.021,0.432h-0.008l-0.006,0.442l-0.008,0.444h-0.007v50.413h0.007l0.008,0.445l0.006,0.441
				h0.008l0.021,0.43h0.008l0.033,0.436l0.051,0.435l0.059,0.428l0.074,0.424l0.076,0.429h0.006l0.086,0.413h0.006l0.104,0.406
				l0.107,0.416l0.121,0.402l0.134,0.396l0.132,0.406h0.005l0.149,0.385l0.158,0.394h0.006l0.166,0.381h0.004l0.169,0.379
				l0.185,0.373l0.195,0.375h0.005l0.207,0.361l0.202,0.354h0.007l0.217,0.355h0.007l0.225,0.344l0.236,0.344H222l0.242,0.332
				l0.248,0.324h0.006l0.252,0.328l0.266,0.313h0.006l0.27,0.308h0.008l0.275,0.301l0.291,0.293h0.006l0.289,0.293l0.307,0.281
				l0.31,0.278l0.312,0.265l0.32,0.26l0.334,0.252l0.33,0.242h0.006l0.336,0.24l0.346,0.225l0.348,0.217h0.01l0.354,0.217
				l0.361,0.205l0.373,0.193l0.367,0.191h0.008l0.373,0.166h0.006l0.379,0.174l0.386,0.162h0.008l0.384,0.147l0.401,0.139
				l0.396,0.134h0.008l0.396,0.112h0.008l0.407,0.117l0.412,0.103h0.006l0.409,0.092l0.428,0.082l0.424,0.072l0.426,0.063
				l0.428,0.047l0.436,0.037h0.006l0.432,0.029l0.443,0.012l0.438,0.008h0.006l0.44-0.008l0.434-0.012l0.438-0.029h0.004
				l0.427-0.037l0.437-0.047h0.006l0.422-0.063l0.427-0.072l0.425-0.082l0.41-0.092h0.006l0.412-0.103l0.404-0.117h0.008
				l0.406-0.112l0.394-0.134h0.008l0.392-0.139l0.392-0.147h0.004l0.39-0.162l0.377-0.174l0.385-0.166l0.369-0.191l0.365-0.193
				h0.006l0.358-0.205h0.006l0.354-0.217h0.006l0.348-0.217l0.346-0.225l0.336-0.24h0.004l0.332-0.242h0.004l0.32-0.252h0.01
				l0.32-0.26l0.312-0.265h0.006l0.308-0.278h0.004l0.291-0.281h0.012l0.301-0.293l0.281-0.293l0.275-0.301h0.008l0.27-0.308h0.006
				l0.266-0.313l0.258-0.328l0.252-0.324l0.242-0.332l0.237-0.344l0.229-0.344l0.225-0.355h0.005l0.205-0.354h0.009l0.191-0.361
				l0.188-0.375l0.195-0.373l0.184-0.379l0.158-0.381l0.16-0.394h0.004l0.153-0.385l0.135-0.406l0.136-0.396l0.117-0.402
				l0.113-0.416l0.1-0.406l0.09-0.413l0.08-0.429h0.008l0.063-0.424l0.059-0.428h0.008l0.033-0.435h0.014l0.035-0.436l0.029-0.43
				l0.023-0.441l0.006-0.445v-50.413l-0.006-0.444l-0.023-0.442l-0.029-0.432l-0.035-0.437h-0.014l-0.033-0.428h-0.008l-0.059-0.433
				l-0.063-0.424h-0.008l-0.08-0.42l-0.09-0.418l-0.1-0.407l-0.113-0.416l-0.117-0.404l-0.136-0.398l-0.135-0.397l-0.153-0.392
				h-0.004l-0.16-0.392l-0.158-0.379l-0.184-0.374l-0.195-0.381l-0.188-0.366l-0.191-0.361h-0.009l-0.205-0.355h-0.005l-0.225-0.357
				l-0.229-0.342l-0.237-0.345l-0.242-0.333l-0.252-0.33l-0.258-0.319l-0.266-0.319h-0.006l-0.27-0.308h-0.008l-0.275-0.3
				l-0.281-0.292l-0.301-0.294h-0.012l-0.291-0.284h-0.004l-0.308-0.274h-0.006l-0.312-0.262l-0.32-0.259h-0.01l-0.32-0.254h-0.004
				l-0.332-0.247h-0.004l-0.336-0.232l-0.346-0.229l-0.348-0.219h-0.006l-0.354-0.213h-0.006l-0.358-0.207h-0.006l-0.365-0.195
				l-0.369-0.179l-0.385-0.184l-0.377-0.167l-0.39-0.158h-0.004l-0.392-0.151l-0.392-0.144h-0.008l-0.394-0.126l-0.406-0.122h-0.008
				l-0.404-0.113l-0.412-0.1h-0.006l-0.41-0.093l-0.425-0.084L238.629,220l-0.422-0.054h-0.006l-0.437-0.054l-0.427-0.037h-0.004
				l-0.438-0.025l-0.434-0.018l-0.44-0.006L236.013,219.805L236.013,219.805z M172.545,194.298v68.808
				c0,9.455,7.734,17.201,17.203,17.201c9.463,0,17.203-7.746,17.203-17.201v-68.808c0-9.462-7.74-17.201-17.203-17.201
				C180.28,177.096,172.545,184.836,172.545,194.298 M265.077,194.298v68.808c0,9.455,7.738,17.201,17.205,17.201
				c9.465,0,17.204-7.746,17.204-17.201v-68.808c0-9.462-7.739-17.201-17.204-17.201
				C272.815,177.096,265.077,184.836,265.077,194.298 M126.28,93.084v58.506v10.294v58.513c0,9.461,7.735,17.201,17.205,17.201
				c9.462,0,17.193-7.74,17.193-17.201v-58.513V151.59V93.084c0-9.471-7.73-17.201-17.193-17.201
				C134.015,75.883,126.28,83.613,126.28,93.084 M328.543,75.883c-9.465,0-17.197,7.73-17.197,17.201v58.506v10.294v58.513
				c0,9.461,7.732,17.201,17.197,17.201h0.013c9.448,0,17.194-7.74,17.194-17.201v-58.513V151.59V93.084
				c0-9.471-7.746-17.201-17.194-17.201H328.543z M172.545,50.374v68.81c0,9.456,7.734,17.199,17.203,17.199
				c9.463,0,17.203-7.743,17.203-17.199v-68.81c0-9.458-7.74-17.201-17.203-17.201C180.28,33.173,172.545,40.916,172.545,50.374
				 M265.077,50.374v68.81c0,9.456,7.738,17.199,17.205,17.199c9.465,0,17.204-7.743,17.204-17.199v-68.81
				c0-9.458-7.739-17.201-17.204-17.201C272.815,33.173,265.077,40.916,265.077,50.374 M236.013,8.853l-0.438,0.005l-0.443,0.02
				L234.7,8.903h-0.006l-0.436,0.041l-0.428,0.046l-0.426,0.063l-0.424,0.071l-0.428,0.079l-0.409,0.099h-0.006l-0.412,0.102
				l-0.408,0.106h-0.007l-0.396,0.121h-0.008l-0.396,0.133l-0.401,0.138l-0.384,0.154h-0.009l-0.385,0.153l-0.379,0.174h-0.006
				l-0.373,0.169h-0.008l-0.367,0.192l-0.373,0.189l-0.361,0.209l-0.354,0.211h-0.009l-0.348,0.217l-0.346,0.229l-0.337,0.233
				h-0.005l-0.331,0.248l-0.334,0.253l-0.319,0.259l-0.312,0.268l-0.31,0.271l-0.307,0.287l-0.289,0.288h-0.006l-0.291,0.297
				l-0.275,0.3h-0.008l-0.27,0.31h-0.006l-0.266,0.313l-0.252,0.327h-0.007l-0.248,0.323L222,16.116h-0.004l-0.236,0.344
				l-0.225,0.341h-0.007l-0.217,0.356h-0.007l-0.202,0.35l-0.207,0.369h-0.005l-0.195,0.368l-0.185,0.374l-0.169,0.373h-0.004
				l-0.166,0.387h-0.006l-0.158,0.385l-0.149,0.393h-0.005l-0.132,0.396l-0.134,0.407l-0.121,0.396l-0.107,0.416l-0.104,0.407
				h-0.006l-0.086,0.42h-0.006l-0.076,0.425l-0.074,0.422l-0.059,0.429l-0.051,0.428l-0.033,0.441h-0.008l-0.021,0.434h-0.008
				l-0.006,0.439l-0.008,0.44h-0.007v50.418h0.007l0.008,0.438l0.006,0.442h0.008l0.021,0.438h0.008l0.033,0.437l0.051,0.431
				l0.059,0.423l0.074,0.424l0.076,0.419h0.006l0.086,0.422h0.006l0.104,0.409l0.107,0.416l0.121,0.403l0.134,0.398l0.132,0.399
				h0.005l0.149,0.391l0.158,0.392h0.006l0.166,0.381h0.004l0.169,0.379l0.185,0.369l0.195,0.366h0.005l0.207,0.367l0.202,0.353
				h0.007l0.217,0.357h0.007l0.225,0.345l0.236,0.344H222l0.242,0.337l0.248,0.319h0.006l0.252,0.326l0.266,0.313h0.006l0.27,0.311
				h0.008l0.275,0.305l0.291,0.295h0.006l0.289,0.291l0.307,0.284l0.31,0.271l0.312,0.266l0.32,0.258l0.334,0.254l0.33,0.248h0.006
				l0.336,0.233l0.346,0.224l0.348,0.223h0.01l0.354,0.217l0.361,0.205l0.373,0.189l0.367,0.19h0.008l0.373,0.173h0.006l0.379,0.171
				l0.386,0.157h0.008l0.384,0.147l0.401,0.137l0.396,0.136h0.008l0.396,0.12h0.008l0.407,0.108l0.412,0.11h0.006l0.409,0.091
				l0.428,0.075l0.424,0.073l0.426,0.063l0.428,0.046l0.436,0.042h0.006l0.432,0.023l0.443,0.012l0.438,0.016h0.006l0.44-0.016
				l0.434-0.012l0.438-0.023h0.004l0.427-0.042l0.437-0.046h0.006l0.422-0.063l0.427-0.073l0.425-0.075l0.41-0.091h0.006l0.412-0.11
				l0.404-0.108h0.008l0.406-0.12l0.394-0.136h0.008l0.392-0.137l0.392-0.147h0.004l0.39-0.157l0.377-0.171l0.385-0.173l0.369-0.19
				l0.365-0.189h0.006l0.358-0.205h0.006l0.354-0.217h0.006l0.348-0.223l0.346-0.224l0.336-0.233h0.004l0.332-0.248h0.004
				l0.32-0.254h0.01l0.32-0.258l0.312-0.266h0.006l0.308-0.271h0.004l0.291-0.284h0.012l0.301-0.291l0.281-0.295l0.275-0.305h0.008
				l0.27-0.311h0.006l0.266-0.313l0.258-0.326l0.252-0.319l0.242-0.337l0.237-0.344l0.229-0.345l0.225-0.357h0.005l0.205-0.353
				h0.009l0.191-0.367l0.188-0.366l0.195-0.369l0.184-0.379l0.158-0.381l0.16-0.392h0.004l0.153-0.391l0.135-0.399l0.136-0.398
				l0.117-0.403l0.113-0.416l0.1-0.409l0.09-0.422l0.08-0.419h0.008l0.063-0.424l0.059-0.423h0.008l0.033-0.431h0.014l0.035-0.437
				l0.029-0.438l0.023-0.442l0.006-0.438V26.055l-0.006-0.44l-0.023-0.439l-0.029-0.434l-0.035-0.441h-0.014l-0.033-0.428h-0.008
				l-0.059-0.429l-0.063-0.422h-0.008l-0.08-0.425l-0.09-0.42l-0.1-0.407l-0.113-0.416l-0.117-0.396l-0.136-0.407l-0.135-0.396
				l-0.153-0.393h-0.004l-0.16-0.385l-0.158-0.387l-0.184-0.373l-0.195-0.374l-0.188-0.368l-0.191-0.369h-0.009l-0.205-0.35h-0.005
				l-0.225-0.356l-0.229-0.341l-0.237-0.344l-0.242-0.339l-0.252-0.323l-0.258-0.327l-0.266-0.313h-0.006l-0.27-0.31h-0.008
				l-0.275-0.3l-0.281-0.297l-0.301-0.288h-0.012l-0.291-0.287h-0.004l-0.308-0.271h-0.006l-0.312-0.268l-0.32-0.259h-0.01
				l-0.32-0.253h-0.004l-0.332-0.248h-0.004l-0.336-0.233l-0.346-0.229l-0.348-0.217h-0.006l-0.354-0.211h-0.006l-0.358-0.209
				h-0.006l-0.365-0.189l-0.369-0.191l-0.385-0.17l-0.377-0.174l-0.39-0.153h-0.004l-0.392-0.154l-0.392-0.138h-0.008l-0.394-0.133
				l-0.406-0.12h-0.008l-0.404-0.107l-0.412-0.101h-0.006l-0.41-0.1l-0.425-0.079l-0.427-0.07l-0.422-0.063h-0.006l-0.437-0.046
				l-0.427-0.041h-0.004l-0.438-0.025l-0.434-0.02l-0.44-0.005h-0.01V8.853z"/>
		</defs>
		<clipPath id="SVGID_2_">
			<use xlink:href="#SVGID_1_"  overflow="visible"/>
		</clipPath>
		
<!--
			<radialGradient id="SVGID_3_" cx="-216.6465" cy="52.5623" r="6.031" gradientTransform="matrix(32.4059 0 0 32.4059 7243.4497 -1599.7649)" gradientUnits="userSpaceOnUse">
			<stop  offset="0" style="stop-color:#3BC3DE"/>
			<stop  offset="0.32" style="stop-color:#25C1DE"/>
			<stop  offset="1" style="stop-color:#064368"/>
		</radialGradient>
-->
<!--		<rect x="126.28" y="8.853" clip-path="url(#SVGID_2_)" fill="url(#SVGID_3_)" width="219.471" height="295.768"/>-->
		<rect x="126.28" y="8.853" clip-path="url(#SVGID_2_)" fill="rgb(0,109,194)" width="219.471" height="295.768"/>
	</g>
</g>
</svg>
